<?xml version="1.0" standalone="no"?>
<!DOCTYPE svg PUBLIC "-//W3C//DTD SVG 1.1//EN" "http://www.w3.org/Graphics/SVG/1.1/DTD/svg11.dtd" >
<svg xmlns="http://www.w3.org/2000/svg" xmlns:xlink="http://www.w3.org/1999/xlink" version="1.1">
<metadata></metadata>
<defs>
<font id="db_helvethaica_x67_medcond" horiz-adv-x="0" >
<font-face units-per-em="2048" ascent="1638" descent="-410" />
<missing-glyph horiz-adv-x="366" />
<glyph unicode="&#x2b;&#x2d;" horiz-adv-x="737" d="M53 0v121h631v-121h-631zM53 410v120h252v220h127v-220h252v-120h-252v-224h-127v224h-252z" />
<glyph unicode="&#x2e;&#x2e;&#x2e;" horiz-adv-x="1466" d="M162 0v170h166v-170h-166zM649 0v170h168v-170h-168zM1138 0v170h164v-170h-164z" />
<glyph unicode="&#x3c;&#x3d;" horiz-adv-x="772" d="M62 0v121h640v-121h-640zM62 510v104l640 314v-132l-483 -233l483 -235v-134z" />
<glyph unicode="&#x3e;&#x3d;" horiz-adv-x="772" d="M70 0v121h640v-121h-640zM70 194v134l483 235l-483 233v132l640 -314v-104z" />
<glyph unicode="&#xe4f;&#x22;" horiz-adv-x="1016" d="M60 440q0 62 15.5 119t44.5 107t69.5 91t90.5 69.5t107 44.5t119 16t119 -16t107 -44.5t90.5 -69.5t69 -91t44.5 -107t16 -119t-16 -119t-44.5 -106.5t-69 -90t-90.5 -69.5t-107 -45t-119 -16t-119 16t-107 45t-90.5 69.5t-69.5 90t-44.5 106.5t-15.5 119zM184 442 q0 -44 12 -85t33 -76.5t50 -65t65 -50.5t77 -32.5t85 -11.5t85 11.5t77 32.5t65 50.5t50 65t33 76.5t12 85q0 66 -26 125t-69.5 102.5t-102 69t-124.5 25.5q-44 0 -85 -11.5t-77 -33t-65 -50.5t-50 -65t-33 -77t-12 -85zM268 442q0 49 19 92.5t51 75.5t75.5 51t92.5 19 t92.5 -19t75.5 -51t51 -75t19 -93q0 -49 -19 -92t-51 -75.5t-75.5 -51t-92.5 -18.5t-92.5 18.5t-75.5 51t-51 75.5t-19 92zM332 1216h133l-15 -231h-104zM379 442q0 -26 10 -49t27.5 -40t40.5 -27t49 -10t49 10t40.5 27t27.5 40t10 49t-10 49.5t-27.5 41t-40.5 27.5t-49 10 t-49 -10t-40.5 -27.5t-27.5 -41t-10 -49.5zM555 1216h133l-14 -231h-104z" />
<glyph unicode="&#xe0e;&#xe3a;" horiz-adv-x="805" d="M16 0v129h82v469q0 30 -15 52t-44 32q27 54 65.5 94.5t86 67t101.5 39t112 12.5q38 0 77 -6.5t74.5 -20t66.5 -33.5t53.5 -46.5t36 -59.5t13.5 -73v-942h-141q-12 15 -29 28.5t-38 24.5t-46 17.5t-55 6.5q-29 0 -57.5 -8.5t-55 -23.5t-49.5 -35q-24 -20 -43 -42v156 q18 13 40.5 26.5t48.5 23.5t55 17t61 7q26 0 49 -3.5t43 -9t36 -12.5q18 -7 30 -14v755q0 32 -12.5 57.5t-35 43t-53.5 27.5t-69 10q-32 0 -61.5 -5t-54 -14t-43.5 -22t-30 -29q6 -8 12 -20t10.5 -26t7.5 -29t3 -29v-592h-232zM555 -448q0 21 7.5 39t20.5 31.5t30 21.5t36 8 q21 0 39 -8t32 -21.5t22 -32t8 -38.5q0 -19 -8 -36.5t-22 -30.5t-32 -20t-39 -7q-19 0 -36 7t-30 20t-20.5 30.5t-7.5 36.5z" />
<glyph unicode="&#xe0f;&#xe3a;" horiz-adv-x="805" d="M16 0v129h82v469q0 30 -15 53t-44 31q27 54 65.5 94.5t86 67t101.5 39t112 12.5q38 0 77 -6.5t74.5 -19.5t66.5 -33t53.5 -46t36 -59t13.5 -73v-944h-147q-3 12 -8.5 25t-14.5 24t-21 18.5t-28 7.5t-29 -7.5t-21 -18.5t-13 -24t-5 -25h-126q0 8 -3 21.5t-9.5 26t-17.5 22 t-28 9.5q-14 0 -25 -7.5t-18 -18.5t-11 -25t-4 -28h-138q0 52 14.5 90t39.5 63.5t58.5 38t71.5 12.5q44 0 76 -15t54 -47q25 30 54.5 43t57.5 13q31 0 51.5 -9.5t38.5 -23.5v749q0 32 -12.5 58t-35 44t-53.5 28t-69 10q-32 0 -61.5 -5.5t-54 -15t-43.5 -22.5t-30 -29 q6 -8 12 -19.5t10.5 -25.5t7.5 -29.5t3 -29.5v-592h-232zM555 -448q0 21 7.5 39t20.5 31.5t30 21.5t36 8q21 0 39 -8t32 -21.5t22 -32t8 -38.5q0 -19 -8 -36.5t-22 -30.5t-32 -20t-39 -7q-19 0 -36 7t-30 20t-20.5 30.5t-7.5 36.5z" />
<glyph unicode="&#xe0e;&#xe38;" horiz-adv-x="805" d="M16 0v129h82v469q0 30 -15 52t-44 32q27 54 65.5 94.5t86 67t101.5 39t112 12.5q38 0 77 -6.5t74.5 -20t66.5 -33.5t53.5 -46.5t36 -59.5t13.5 -73v-942h-141q-12 15 -29 28.5t-38 24.5t-46 17.5t-55 6.5q-29 0 -57.5 -8.5t-55 -23.5t-49.5 -35q-24 -20 -43 -42v156 q18 13 40.5 26.5t48.5 23.5t55 17t61 7q26 0 49 -3.5t43 -9t36 -12.5q18 -7 30 -14v755q0 32 -12.5 57.5t-35 43t-53.5 27.5t-69 10q-32 0 -61.5 -5t-54 -14t-43.5 -22t-30 -29q6 -8 12 -20t10.5 -26t7.5 -29t3 -29v-592h-232zM520 -366h205v-300h-139v176h-66v124z" />
<glyph unicode="&#xe0f;&#xe38;" horiz-adv-x="805" d="M16 0v129h82v469q0 30 -15 53t-44 31q27 54 65.5 94.5t86 67t101.5 39t112 12.5q38 0 77 -6.5t74.5 -19.5t66.5 -33t53.5 -46t36 -59t13.5 -73v-944h-147q-3 12 -8.5 25t-14.5 24t-21 18.5t-28 7.5t-29 -7.5t-21 -18.5t-13 -24t-5 -25h-126q0 8 -3 21.5t-9.5 26t-17.5 22 t-28 9.5q-14 0 -25 -7.5t-18 -18.5t-11 -25t-4 -28h-138q0 52 14.5 90t39.5 63.5t58.5 38t71.5 12.5q44 0 76 -15t54 -47q25 30 54.5 43t57.5 13q31 0 51.5 -9.5t38.5 -23.5v749q0 32 -12.5 58t-35 44t-53.5 28t-69 10q-32 0 -61.5 -5.5t-54 -15t-43.5 -22.5t-30 -29 q6 -8 12 -19.5t10.5 -25.5t7.5 -29.5t3 -29.5v-592h-232zM520 -366h205v-300h-139v176h-66v124z" />
<glyph unicode="&#xe0e;&#xe39;" horiz-adv-x="805" d="M16 0v129h82v469q0 30 -15 52t-44 32q27 54 65.5 94.5t86 67t101.5 39t112 12.5q38 0 77 -6.5t74.5 -20t66.5 -33.5t53.5 -46.5t36 -59.5t13.5 -73v-942h-141q-12 15 -29 28.5t-38 24.5t-46 17.5t-55 6.5q-29 0 -57.5 -8t-55 -22t-49.5 -33q-24 -20 -43 -42v152 q18 13 40.5 26.5t48.5 23.5t55 17t61 7q26 0 49 -3.5t43 -9t36 -12.5q18 -7 30 -14v755q0 32 -12.5 57.5t-35 43t-53.5 27.5t-69 10q-32 0 -61.5 -5t-54 -14t-43.5 -22t-30 -29q6 -8 12 -20t10.5 -26t7.5 -29t3 -29v-592h-232zM262 -366h205v-148q-1 -72 59 -72t60 72v148 h139v-148q-1 -38 -11.5 -73t-34 -61t-61.5 -41t-92 -15t-92 15t-61 41t-34 61t-11 73v26h-66v122z" />
<glyph unicode="&#xe0f;&#xe39;" horiz-adv-x="805" d="M16 0v129h82v469q0 30 -15 53t-44 31q27 54 65.5 94.5t86 67t101.5 39t112 12.5q38 0 77 -6.5t74.5 -19.5t66.5 -33t53.5 -46t36 -59t13.5 -73v-944h-147q-3 12 -8.5 25t-14.5 24t-21 18.5t-28 7.5t-29 -7.5t-21 -18.5t-13 -24t-5 -25h-126q0 8 -3 21.5t-9.5 26t-17.5 22 t-28 9.5q-14 0 -25 -7.5t-18 -18.5t-11 -25t-4 -28h-138q0 52 14.5 90t39.5 63.5t58.5 38t71.5 12.5q44 0 76 -15t54 -47q25 30 54.5 43t57.5 13q31 0 51.5 -9.5t38.5 -23.5v749q0 32 -12.5 58t-35 44t-53.5 28t-69 10q-32 0 -61.5 -5.5t-54 -15t-43.5 -22.5t-30 -29 q6 -8 12 -19.5t10.5 -25.5t7.5 -29.5t3 -29.5v-592h-232zM262 -366h205v-148q-1 -72 59 -72t60 72v148h139v-148q-1 -38 -11.5 -73t-34 -61t-61.5 -41t-92 -15t-92 15t-61 41t-34 61t-11 73v26h-66v122z" />
<glyph unicode="&#xd;" horiz-adv-x="415" />
<glyph unicode=" "  horiz-adv-x="366" />
<glyph unicode="&#x09;" horiz-adv-x="366" />
<glyph unicode="&#xa0;" horiz-adv-x="366" />
<glyph unicode="!" horiz-adv-x="489" d="M162 0v170h166v-170h-166zM162 721v323h166v-323l-35 -467h-99z" />
<glyph unicode="&#x22;" horiz-adv-x="389" d="M62 715v327h102v-327h-102zM226 715v327h102v-327h-102z" />
<glyph unicode="#" horiz-adv-x="846" d="M53 336l37 118h148l40 124h-151l39 118h150l110 336h125l-111 -336h78l106 336h124l-109 -336h153l-36 -118h-156l-37 -124h152l-35 -118h-158l-106 -336h-123l107 336h-76l-111 -336h-121l108 336h-147zM360 454h84l42 124h-84z" />
<glyph unicode="$" horiz-adv-x="731" d="M39 340h147v-54t4 -50t11 -44t20 -35.5t34 -25t50 -12.5v354q-52 21 -98.5 46t-82.5 59t-57.5 78t-21.5 102q0 57 18.5 104.5t52.5 83.5t82 58.5t107 29.5v92h115v-90q58 -6 104 -28.5t78 -60t48 -88.5t14 -111h-150q-2 32 -5 57.5t-13 45.5t-28 33.5t-48 20.5v-319 q46 -18 84 -36t69 -36.5t54.5 -40.5t39 -49.5t23.5 -62.5t8 -81q0 -64 -18.5 -115.5t-54 -89.5t-87.5 -61.5t-118 -29.5v-136h-115v138q-83 6 -137 32.5t-85 72t-40.5 108.5t-3.5 141zM205 770q0 -27 7.5 -48t21 -37.5t32 -29.5t39.5 -24v270q-19 -4 -37 -13.5t-32 -24.5 t-22.5 -38t-8.5 -55zM420 119q30 3 52 15t37 31.5t22 45t7 55.5q0 33 -8 57.5t-23 43.5t-37 33t-50 26v-307z" />
<glyph unicode="%" horiz-adv-x="1159" d="M70 750q0 50 10 95.5t34 81t65.5 56.5t104.5 21q60 0 100 -23t63 -59.5t32 -83t9 -94.5q0 -73 -13.5 -124.5t-40 -83t-67.5 -44t-97 -8.5q-48 3 -85 16.5t-63 44.5t-39 81t-13 124zM207 727q0 -20 2 -43t9.5 -42.5t21.5 -32.5t40 -13q24 0 39 13t22 32.5t9 42.5t2 43 v31.5t-2 35.5t-7 35t-13 30.5t-21 21.5t-33 8q-26 0 -40 -17.5t-20.5 -42.5t-7.5 -53t-1 -49zM291 0l455 1000h116l-448 -1000h-123zM670 266q0 50 10 95t34.5 80t66 55t103.5 20t102 -22t63 -57.5t32 -81t9 -93.5q0 -74 -16.5 -125t-46 -83t-70.5 -45.5t-91 -12.5 q-38 0 -73 14t-62.5 46t-44 83t-16.5 127zM805 240q0 -19 2.5 -41.5t10.5 -42.5t22 -33t40 -13q24 0 39 13t22 33t9 42t2 42q0 22 -1 50t-8 53t-22 42t-43 17t-42.5 -17t-21 -42t-8 -53t-1.5 -50z" />
<glyph unicode="&#x26;" horiz-adv-x="977" d="M88 293q0 58 17 102.5t47.5 79.5t71 64t88.5 57q-22 27 -40 51t-30.5 49t-19.5 52.5t-7 62.5q0 46 15.5 86.5t44.5 71.5t71 49q40 18 92 18q54 0 100 -15t79 -42.5t51 -67.5t18 -90q0 -42 -15.5 -78.5t-41 -67.5t-58.5 -58t-67 -49l186 -236q14 40 22 83t13 87h141 q-3 -38 -8.5 -76.5t-15.5 -76t-23 -73.5t-31 -67l170 -209h-186l-78 88q-25 -24 -54.5 -43.5t-63.5 -33.5t-70 -21.5t-74 -7.5q-78 0 -142 22t-109 62t-69 98t-24 129zM248 291q0 -40 15 -72.5t41.5 -55t63 -35t78.5 -12.5q24 0 47 6.5t44 17t39 24.5t34 30l-223 300 q-28 -19 -53 -40.5t-44 -46t-30.5 -53t-11.5 -63.5zM360 826q0 -20 6.5 -40t17 -39.5t23 -38t25.5 -36.5q21 14 39.5 29t32.5 33t22 39t8 48q0 18 -5.5 35.5t-16.5 31.5t-27.5 22t-38.5 8q-21 0 -36.5 -8t-26.5 -21t-17 -29t-6 -34z" />
<glyph unicode="'" horiz-adv-x="366" d="M131 715v327h103v-327h-103z" />
<glyph unicode="(" horiz-adv-x="489" d="M90 364q0 68 7 129.5t20 118t33 109.5t45.5 105.5t57 106t69.5 111.5h110q-16 -32 -36 -69t-40 -82t-39 -97.5t-34 -116t-24 -138.5t-9 -164q0 -96 10.5 -181.5t33 -167.5t58.5 -163t86 -164h-116q-49 76 -91.5 155t-73.5 161.5t-49 168.5t-18 178z" />
<glyph unicode=")" horiz-adv-x="489" d="M49 1044h119q48 -67 90.5 -144t74 -161.5t49.5 -175t18 -182.5q0 -68 -7 -129t-20 -117.5t-32.5 -109.5t-45 -106t-57.5 -107t-70 -111h-108q16 32 36 69t40 81.5t38.5 97.5t33 116.5t23.5 139t9 163.5q0 95 -10.5 181.5t-33 169t-58.5 163t-89 162.5z" />
<glyph unicode="*" horiz-adv-x="731" d="M123 860l37 92l158 -61v168h104v-164l160 57l30 -96l-160 -51l109 -127l-86 -64l-111 136l-102 -128l-90 54l108 125z" />
<glyph unicode="+" horiz-adv-x="737" d="M53 293v121h252v252h127v-252h252v-121h-252v-258h-127v258h-252z" />
<glyph unicode="," horiz-adv-x="368" d="M102 0v166h164v-174q0 -36 -11 -68t-32 -59.5t-51 -48.5q-32 -21 -70 -33v96q26 10 40 24t21 29.5t8 33t1 34.5h-70z" />
<glyph unicode="-" horiz-adv-x="508" d="M53 293v121h401v-121h-401z" />
<glyph unicode="." horiz-adv-x="368" d="M102 0v170h164v-170h-164z" />
<glyph unicode="/" horiz-adv-x="450" d="M-16 -37l354 1081h129l-359 -1081h-124z" />
<glyph unicode="0" horiz-adv-x="696" d="M39 508q0 36 1 76t5.5 82.5t12.5 84.5t23 80.5t38 72t55 58t75 38.5t99 14t99 -14t75 -38.5t54.5 -58t37 -72t23.5 -80.5t13 -84.5t5 -82.5t1 -76q0 -42 -1 -87.5t-6 -90t-13 -87.5t-23 -81.5t-38 -71t-55 -55.5t-74 -36t-98 -13q-74 0 -125.5 23t-86 62t-53.5 91 t-29 110t-12.5 118.5t-2.5 117.5zM194 512q0 -44 1 -90t5.5 -89t14 -82t26.5 -67.5t43 -45.5t64 -17q36 0 61.5 17t42.5 45.5t26.5 67.5t14.5 82t6 89t1 90q0 40 -1.5 83t-6.5 84t-14.5 77.5t-26.5 64t-42 43.5t-61 16q-39 0 -65.5 -18t-43.5 -48t-26 -69t-13 -80t-5 -81 t-1 -72z" />
<glyph unicode="1" horiz-adv-x="694" d="M82 698v123q57 1 101 10.5t75.5 30.5t50.5 54.5t25 83.5h127v-1000h-154v729q-36 -16 -93.5 -23.5t-131.5 -7.5z" />
<glyph unicode="2" horiz-adv-x="694" d="M37 0q0 46 5.5 90.5t20.5 87.5t40.5 83.5t64.5 76.5l209 178q26 24 45.5 46.5t32.5 47.5t20 54.5t7 66.5q0 32 -8 59.5t-25.5 48t-45 32t-65.5 11.5q-32 0 -54.5 -10t-38.5 -28t-26 -41t-15.5 -49t-6.5 -53t-1 -52h-151v78q0 62 20.5 114.5t59.5 91.5t94 61t123 22 q73 0 128.5 -21t92.5 -59t55.5 -91t18.5 -118q0 -54 -12.5 -99.5t-35 -85t-55.5 -74.5q-32 -34 -73 -68l-193 -160q-28 -23 -43.5 -48.5t-21.5 -58.5h444v-133h-610z" />
<glyph unicode="3" horiz-adv-x="694" d="M30 326h156q-3 -39 2.5 -75.5t22.5 -63.5t48 -43.5t79 -16.5q40 0 69 11.5t48 31.5t28 47t9 59q0 57 -13 94t-42 58.5t-76 29.5t-113 7v127q29 1 56.5 2.5t51.5 6.5t43.5 14t34 25.5t22 41t7.5 60.5q0 30 -6.5 55t-22 43t-41 28t-61.5 10q-42 0 -68 -14t-41 -38t-20 -56 t-5 -68h-149q-3 66 12 124t50 100t90.5 66t132.5 24q65 0 117.5 -18t89.5 -52t57 -82t20 -108q0 -36 -4 -68t-15.5 -58.5t-32 -49t-52.5 -40.5q36 -14 61.5 -37t41 -53t23.5 -64q7 -34 7 -72q0 -72 -18 -132t-56.5 -103.5t-98.5 -67t-144 -23.5q-86 0 -144 25t-93 70 t-49 107q-16 62 -14 136z" />
<glyph unicode="4" horiz-adv-x="671" d="M14 240v124l408 636h135v-623h97v-137h-97v-240h-155v240h-388zM178 372h224v312l6 60l-23 -54z" />
<glyph unicode="5" horiz-adv-x="694" d="M41 286h157q-1 -38 5.5 -68t22.5 -50.5t42.5 -31.5t65.5 -11q40 0 70 18t49.5 47.5t29 68.5t9.5 79q0 38 -7 76t-25.5 69t-50 49.5t-79.5 18.5q-24 0 -44 -3.5t-36.5 -12.5t-30 -24t-25.5 -38h-141l63 527h492v-136h-360q-10 -71 -16 -113t-10 -65q-4 -27 -7 -37 q26 19 63.5 27t75.5 8q78 0 133 -27.5t91 -73t52.5 -104.5t16.5 -123q0 -44 -7 -89t-22.5 -86t-39.5 -76t-58.5 -61t-80 -41t-103.5 -15q-74 0 -131 20t-94 58t-55 94q-18 54 -15 126z" />
<glyph unicode="6" horiz-adv-x="694" d="M39 456q0 46 0.5 94t4.5 95.5t12 93t23 86.5t39 75t58 59t80 39t106 14t108 -15t82 -47t55 -80t28 -116h-160q-4 38 -14.5 61.5t-26.5 37t-38 18.5t-50 5q-34 0 -58 -12t-40.5 -33.5t-27 -50t-16.5 -60.5t-8 -66t-2 -66q36 37 81 54.5t93 17.5q50 0 91 -12.5t74 -34 t57 -51.5t40 -65.5t24 -75t8 -81.5q0 -80 -21 -145.5t-60.5 -111.5t-95.5 -70.5t-125 -24.5q-74 0 -127 20t-89 55t-57 81.5t-31.5 98.5t-13.5 107q-3 54 -3 106zM203 344q0 -62 11 -104t31.5 -67t48.5 -35q28 -11 64 -11q44 0 72 20t44 50.5t22 67t6 69.5q0 36 -7 70 t-24 60t-47 42t-74 16q-45 0 -73.5 -16.5t-45 -42.5t-22.5 -57.5t-6 -61.5z" />
<glyph unicode="7" horiz-adv-x="694" d="M37 864v136h623v-116q-74 -94 -135 -200t-105.5 -219t-73 -230t-39.5 -235h-170q16 118 45.5 233t73.5 224t102 212t130 195h-451z" />
<glyph unicode="8" horiz-adv-x="694" d="M43 297q0 50 12 89t32.5 68.5t46.5 49.5t56 32q-30 16 -51.5 38.5t-35 50.5t-20.5 60.5t-7 68.5q0 47 15 93.5t48 84t88 61t133 23.5q60 0 108.5 -17t83 -51t52.5 -84t18 -114q0 -32 -6 -63t-20 -59t-34 -51t-48 -39q38 -14 64 -37t43 -52t25 -64t8 -71q0 -67 -17 -127.5 t-53 -106t-92 -72.5q-58 -26 -138 -26q-77 0 -135 21t-97.5 62t-59 99.5t-19.5 132.5zM200 303q0 -37 7.5 -70.5t25.5 -59.5t48 -41q29 -16 75 -16q32 0 57 13t43 36.5t28 58t10 79.5q0 34 -8 63.5t-25 51.5t-45 34.5t-68 12.5t-68 -13t-46 -35t-26 -51.5t-8 -62.5zM234 746 q0 -31 7 -57.5t22 -46.5t37 -31t54 -11t53 12t34 31.5t19 45.5q5 27 5 55q0 27 -5.5 51.5t-18.5 44t-35 31t-54 11.5q-33 0 -55.5 -10t-36.5 -28.5t-20 -43.5t-6 -54z" />
<glyph unicode="9" horiz-adv-x="694" d="M39 660q0 80 20.5 145t59.5 111t95 71t126 25q74 0 127 -20.5t89 -55.5t57 -81.5t32 -98.5t14 -107t3 -107q0 -60 -2 -124.5t-11 -126t-28 -116.5t-55 -97t-91.5 -66t-136.5 -24q-61 0 -108.5 15t-81.5 46t-54 80t-28 117h160q4 -38 14 -62t26.5 -37.5t38 -18.5t49.5 -5 q33 0 57.5 12.5t41.5 33.5t27 50t16 61t8 66t2 66q-36 -37 -81 -54.5t-93 -17.5q-74 0 -129.5 26.5t-92 71t-54.5 102.5q-17 58 -17 120zM198 666q0 -36 7 -70t24.5 -60.5t47 -42.5t73.5 -16q46 0 74.5 16.5t45 42.5t22.5 58t6 62q0 60 -11 101.5t-32 67t-49.5 36.5 t-63.5 11q-44 0 -72 -20t-44 -50t-22 -66.5t-6 -69.5z" />
<glyph unicode=":" horiz-adv-x="368" d="M102 0v170h164v-170h-164zM102 592v170h164v-170h-164z" />
<glyph unicode=";" horiz-adv-x="368" d="M102 0v166h164v-174q0 -36 -11 -68t-32 -59.5t-51 -48.5q-32 -21 -70 -33v96q26 10 40 24t21 29.5t8 33t1 34.5h-70zM102 592v170h164v-170h-164z" />
<glyph unicode="&#x3c;" horiz-adv-x="772" d="M62 322v104l640 338v-131l-485 -258l485 -256v-135z" />
<glyph unicode="=" horiz-adv-x="737" d="M53 162v120h631v-120h-631zM53 426v121h631v-121h-631z" />
<glyph unicode="&#x3e;" horiz-adv-x="772" d="M70 -16v135l481 256l-481 258v131l640 -338v-104z" />
<glyph unicode="?" horiz-adv-x="731" d="M72 704q-2 44 3.5 88t21 83t39.5 72.5t59 58t80 38t102 13.5q72 0 130.5 -19t100 -54.5t64 -86.5t22.5 -115q0 -48 -10 -86t-27.5 -69t-41 -57t-48.5 -52t-51.5 -53t-50.5 -59q-11 -14 -17.5 -32t-9.5 -39t-3.5 -46t1.5 -53h-162q0 40 2 71t6.5 55.5t13 45t21.5 41.5 t33 43t46 50q24 23 47 49.5t42 55.5t30 61t11 68q0 28 -7 55.5t-22 49t-40 35.5t-61 14q-35 0 -61 -9t-44.5 -25t-30.5 -38t-18 -47t-8 -52t-2 -55h-160zM274 0v168h164v-168h-164z" />
<glyph unicode="@" horiz-adv-x="1206" d="M108 518q0 75 18.5 144t51.5 128.5t79.5 107.5t103.5 82.5t123 53t136 18.5q64 0 124 -14t113 -41t97 -66t75 -89t49 -110.5t18 -129.5q0 -49 -12.5 -94.5t-35 -84.5t-53.5 -72t-68.5 -57.5t-80.5 -39.5q-42 -14 -88 -18q-14 -1 -32 1.5t-34 8.5t-30 16t-21 24 q-18 -17 -35.5 -26.5t-34 -15t-33 -7t-34.5 -1.5q-42 0 -75 16t-55.5 44.5t-34 66t-11.5 79.5q0 44 8 87t25 82.5t42 73t57 58.5t72 39t88 14q37 0 72 -15t66 -54l12 49h108l-120 -370l-8 -24t-4 -22.5t7 -17t27 -6.5q32 0 60 12t51 32t40 47t29 57t18.5 61t6.5 59 q0 79 -28.5 140.5t-77.5 103.5t-116 64t-143 22q-56 0 -107 -15.5t-95 -43t-80.5 -66.5t-62.5 -85t-40 -98t-14 -108t13.5 -108t39.5 -97.5t62 -83t80 -64.5t96 -42t108 -15q44 0 91 9t92 28t85 48t70 69h142q-41 -70 -94.5 -121t-115 -84t-130 -49t-140.5 -16 q-74 0 -140 18t-123 52t-103 81t-78 105.5t-50 127t-18 142.5zM438 446q0 -22 4 -42t13.5 -35t25 -24t39.5 -9q29 0 53.5 14.5t44.5 38t35 53.5t25 60.5t15 60t5 51.5q0 18 -3 34t-12 28t-23 19t-36 9q-33 0 -59.5 -11.5t-46.5 -31.5t-35 -46.5t-25 -55t-15 -58t-5 -55.5z " />
<glyph unicode="A" horiz-adv-x="829" d="M2 0l316 1044h198l312 -1044h-170l-82 282h-328l-78 -282h-168zM289 424h251l-116 412l-10 44l-8 -44z" />
<glyph unicode="B" horiz-adv-x="813" d="M96 0v1044h338h15q69 0 119 -17q56 -19 91 -54t52 -85t18 -110q0 -38 -5.5 -71t-19 -61t-37 -51t-59.5 -40q40 -13 69 -36t46 -54.5t25 -69t8 -79.5v-7q0 -157 -86 -235q-80 -74 -236 -74h-24h-314zM250 131h184q44 0 75.5 10.5t51 31.5t28.5 54t9 78q0 44 -8.5 73.5 t-25 48.5t-39.5 29t-50.5 15t-59 5.5t-65.5 0.5h-100v-346zM250 612h100q52 0 92 4t68 20t42 46q13 28 13 77v7q0 43 -9.5 71t-34.5 44.5t-67 23.5t-106 7h-98v-300z" />
<glyph unicode="C" horiz-adv-x="815" d="M58 534q0 59 4.5 121.5t18 121.5t39 111t67 91.5t100.5 62.5t141 23t145 -26.5t105 -73.5t62 -111q18 -58 18 -125v-14h-154q-1 45 -10.5 85t-30.5 69t-56.5 46t-88.5 17q-46 0 -79 -20t-56 -53.5t-36 -76t-19.5 -86.5t-8.5 -86t-2 -74q0 -38 1.5 -83t7.5 -91t18 -90 t34 -78t56 -54.5t84 -20.5q58 0 95 23t57 62q20 38 28 90q6 41 6 85v23h154v-26q0 -42 -4 -83q-6 -53 -23 -99t-43 -85t-63 -67t-86 -43t-111 -15q-89 0 -151.5 23t-103.5 64t-64 95t-34.5 115t-14 126t-2.5 127z" />
<glyph unicode="D" horiz-adv-x="893" d="M96 0v1044h326q90 0 154 -20t108 -56t71 -85t41 -106.5t18.5 -122t4.5 -130.5q0 -64 -6.5 -127.5t-22 -122t-42.5 -108.5t-68.5 -87t-100.5 -58t-137 -21h-346zM250 131h186q63 0 106 23.5t69.5 73.5t38.5 128.5t12 188.5q0 36 -2 77t-9 81.5t-21 78.5t-39 66.5t-63 46 t-92 17.5h-186v-781z" />
<glyph unicode="E" horiz-adv-x="737" d="M96 0v1044h592v-132h-438v-304h412v-133h-412v-344h440v-131h-594z" />
<glyph unicode="F" horiz-adv-x="674" d="M96 0v1044h558v-132h-404v-300h376v-135h-376v-477h-154z" />
<glyph unicode="G" horiz-adv-x="899" d="M60 528q0 61 5 124.5t20 122.5t41.5 111t69 91t103.5 61.5t143 22.5q83 0 148.5 -24t110 -68.5t67.5 -108.5q22 -63 22 -141h-157q0 46 -11 84t-33.5 65.5t-57.5 42.5t-83 17h-6q-52 0 -88 -17q-39 -18 -64.5 -48.5t-40.5 -71.5t-22 -86t-8.5 -92t-1.5 -89 q0 -36 0.5 -79.5t5.5 -88t16 -86.5t33 -75t56 -53q36 -21 86 -23h16q41 0 72 9q37 10 62.5 31t41.5 50.5t25 64t12 71.5t4 75h-245v131h399v-551h-127l-2 100q-38 -59 -100 -87.5t-140 -28.5q-64 0 -114 13t-88 37.5t-66 58t-47 73t-30 84t-17 91.5t-8 95q-2 46 -2 92z" />
<glyph unicode="H" horiz-adv-x="901" d="M96 0v1044h154v-424h399v424h156v-1044h-156v490h-399v-490h-154z" />
<glyph unicode="I" horiz-adv-x="409" d="M127 0v1044h155v-1044h-155z" />
<glyph unicode="J" horiz-adv-x="653" d="M16 264v86h154v-76q0 -31 2.5 -59.5t14 -51.5t33.5 -37t62 -14t64 14t36.5 37t16 52t3.5 59v770h153v-780q0 -84 -19.5 -139t-56 -87.5t-87 -45t-112.5 -12.5q-79 0 -130 21t-80.5 58t-41.5 89.5t-12 115.5z" />
<glyph unicode="K" horiz-adv-x="819" d="M98 0v1044h152v-474q95 120 187 238q91 118 187 236h193l-352 -438q90 -150 180.5 -304t180.5 -302h-191l-279 475q-25 -28 -52 -57.5t-50 -59.5v-358h-156z" />
<glyph unicode="L" horiz-adv-x="727" d="M98 0v1044h154v-913h454v-131h-608z" />
<glyph unicode="M" horiz-adv-x="1157" d="M98 0v1044h246l224 -794l10 -52q3 16 5.5 29t6.5 23l225 794h244v-1044h-156v846l-4 -16l-237 -830h-170l-238 844v-844h-156z" />
<glyph unicode="N" horiz-adv-x="905" d="M98 0v1044h224l319 -818l13 -44l-2 31v831h155v-1044h-225l-320 805l-14 41l4 -45v-801h-154z" />
<glyph unicode="O" horiz-adv-x="899" d="M70 538q0 62 4 126.5t18.5 125t40 113.5t68.5 93t105 63q60 23 146 23q84 0 144 -23t102 -63t67 -93t39 -113.5t19 -125t5 -126.5q0 -74 -5.5 -146t-19.5 -136.5t-39.5 -119t-67.5 -93.5t-103 -61.5t-145 -22.5t-144 22.5t-102 61.5t-68 93.5t-40 119t-19 136t-5 146.5z M230 536q0 -110 7.5 -192t31 -137t66.5 -83t113 -28t113 28t67 83t32 137t8 192q0 56 -4 108t-13 97.5t-25.5 83t-41 63.5t-58.5 41t-80 15q-44 0 -77 -15t-57 -41t-40 -63.5t-26 -83t-14 -97.5q-2 -52 -2 -108z" />
<glyph unicode="P" horiz-adv-x="811" d="M98 0v1044h316q46 0 91 -6.5t85 -21t74 -38t59 -56.5t39 -76.5t14 -97.5q0 -69 -16 -119.5t-45 -85.5t-70 -57t-92 -34t-111 -17t-126 -5h-62v-430h-156zM254 561h110q59 0 106.5 6.5t80 25.5t49.5 55q16 36 16 98q0 54 -18.5 87t-51.5 51t-78 24q-34 4 -72 4h-26h-116 v-351z" />
<glyph unicode="Q" horiz-adv-x="895" d="M70 538q0 62 4 126.5t18.5 125t40 113.5t68.5 93t105 63q60 23 146 23q84 0 144 -23t102 -63t67 -93t39 -113.5t19 -125t5 -126.5q-1 -57 -4 -112.5t-10.5 -107t-20.5 -98.5t-33 -87l118 -92l-82 -97l-114 86q-42 -34 -99 -52.5t-135 -18.5q-84 0 -144 22.5t-102 61.5 t-68 93.5t-40 119t-19 136t-5 146.5zM230 536q0 -110 7.5 -192t31 -137t66.5 -83t113 -28q34 0 62 6.5t51 20.5l-109 84l84 100l101 -77q18 54 24.5 130t6.5 176q0 56 -4 108t-13 97.5t-25.5 83t-41 63.5t-58.5 41t-80 15q-44 0 -77 -15t-57 -41t-40 -63.5t-26 -83 t-14 -97.5q-2 -52 -2 -108z" />
<glyph unicode="R" horiz-adv-x="887" d="M98 0v1044h310q60 0 112 -5t95.5 -19t77.5 -36t56.5 -56t33.5 -80q9 -39 9 -88v-18q-2 -79 -39 -136.5t-108 -85.5q36 -9 60.5 -24.5t39.5 -38.5t21.5 -55t9 -74t4.5 -75t5 -60t7 -50t12 -46t19 -46t27 -51h-176q-8 18 -14 42t-11 50t-8.5 53t-6 51.5t-4.5 45.5 q-2 20 -2 32q-2 34 -10 65t-27 54.5t-51 37t-81 13.5h-205v-444h-156zM254 578h182q14 0 34 1t42.5 7t44.5 17t39 31q18 20 29 48q10 26 10 63v7q-1 39 -12 65.5t-29 44.5t-41 28t-47 15t-48 6q-22 1 -42 1h-162v-334z" />
<glyph unicode="S" horiz-adv-x="815" d="M56 360h151v-21q1 -44 7 -80q8 -45 30.5 -77t61 -49t98.5 -17q40 0 76 9t63 28.5t43 49t16 69.5q0 34 -10 57t-26 39.5t-39 29t-48 24.5l-243 114q-42 20 -73 45t-51.5 55.5t-30 67t-9.5 80.5q0 66 23 118t65 88.5t101 55.5t130 19q80 0 144.5 -20t108.5 -59.5t66 -99.5 q18 -49 18 -110q0 -14 -1 -28h-155q1 11 1 22q0 26 -7 50q-10 34 -31 59t-53 39t-74 14q-57 0 -91.5 -13t-53.5 -34t-25 -47t-6 -54q0 -24 6 -42.5t18 -34t30 -27.5t42 -22l208 -97q52 -24 94 -51.5t71.5 -61t44.5 -73.5q16 -41 16 -89q0 -76 -25 -133t-71.5 -95t-113 -57 t-148.5 -19q-96 0 -163 23t-108 69.5t-59 118t-18 167.5z" />
<glyph unicode="T" horiz-adv-x="731" d="M10 912v132h713v-132h-279v-912h-153v912h-281z" />
<glyph unicode="U" horiz-adv-x="897" d="M98 270v774h156v-735q0 -18 1.5 -39.5t8.5 -42.5t19.5 -40.5t34.5 -34.5t54 -24t76 -9t76.5 9t54.5 24t35.5 34.5t20.5 40.5t9 42t1 40v735h153v-774q0 -72 -25 -126t-71 -89.5t-110 -52.5q-66 -18 -144 -18t-142.5 17.5t-110.5 53t-71.5 89.5t-25.5 126z" />
<glyph unicode="V" horiz-adv-x="837" d="M6 1044h168l230 -804l14 -68l10 68l232 804h172l-324 -1044h-184z" />
<glyph unicode="W" horiz-adv-x="1237" d="M12 1044h170l154 -724q2 -8 3 -18t3 -19.5t3 -18t3 -14.5l12 70l164 724h186l152 -724q5 -20 8.5 -39t5.5 -37q3 20 6.5 39t8.5 37l163 724h170l-260 -1044h-186l-150 704q-4 20 -7 42t-7 46l-14 -88l-162 -704h-186z" />
<glyph unicode="X" horiz-adv-x="815" d="M2 0l324 540l-314 504h182l218 -374l212 374h183l-309 -504l317 -540h-189l-218 406l-222 -406h-184z" />
<glyph unicode="Y" horiz-adv-x="829" d="M-2 1044h170l244 -487l244 487h172l-338 -644v-400h-156v400z" />
<glyph unicode="Z" horiz-adv-x="784" d="M45 0v114l514 798h-499v132h671v-116l-514 -797h523v-131h-695z" />
<glyph unicode="[" horiz-adv-x="489" d="M129 -293v1337h289v-116h-140v-1100h140v-121h-289z" />
<glyph unicode="\" horiz-adv-x="450" d="M-16 1044h128l355 -1081h-125z" />
<glyph unicode="]" horiz-adv-x="489" d="M68 -172h143v1100h-143v116h290v-1337h-290v121z" />
<glyph unicode="^" horiz-adv-x="731" d="M74 446l242 617h98l246 -617h-122l-172 434q-42 -106 -86 -217q-46 -111 -86 -217h-120z" />
<glyph unicode="_" horiz-adv-x="731" d="M0 -84h731v-112h-731v112z" />
<glyph unicode="`" horiz-adv-x="489" d="M82 1065h186l140 -207h-128z" />
<glyph unicode="a" horiz-adv-x="649" d="M24 219q0 8 1 22.5t5 32.5t12 37.5t22.5 38.5t35.5 36q22 18 54 30q52 19 96.5 35.5t78.5 29.5q41 14 73 27q6 4 9 8.5t5 11t2 15.5v22q0 28 -7 47t-21 31t-36 17.5t-53 5.5q-34 0 -55.5 -8.5t-33 -25t-15 -40.5t-3.5 -56l-136 6v14q0 57 14 99q16 47 49 76t83 42t118 13 q48 0 84 -8.5t62 -23t43 -32.5t27 -38t15 -39t7 -35t1.5 -27t-0.5 -13v-416q0 -6 0.5 -12t1.5 -11t3 -9q4 -4 8 -6q9 -3 21.5 -1.5t30.5 4.5v-111q-23 -6 -40.5 -9t-38.5 -3q-18 0 -36 4t-33.5 13t-27 24.5t-18.5 38.5q-16 -20 -36 -36t-43 -28t-48 -19t-51 -7 q-64 0 -108 16t-71 46t-39 73t-12 98zM178 215q0 -24 4.5 -43.5t16 -32.5t31.5 -21t50 -8q14 0 36 6t42.5 20.5t35.5 40.5q14 27 14 67v154q-13 -6 -28.5 -13t-35.5 -15t-46 -18t-60 -22q-16 -7 -28 -19.5t-19 -28t-10 -33t-3 -34.5z" />
<glyph unicode="b" horiz-adv-x="731" d="M88 0v1044h150v-332q34 42 76 58t90 16q54 0 95 -15t71.5 -41t51 -62t32.5 -77.5t17 -87t5 -91.5q0 -49 -4 -99.5t-15 -98t-30.5 -89t-50 -72t-72.5 -48t-98 -17.5q-26 0 -49.5 3t-45.5 12t-43 25q-20 16 -40 40v-68h-140zM232 370v-55t4.5 -58t13.5 -55.5t25.5 -47 t42.5 -32.5t63 -12q40 0 67.5 19t43.5 56t23 91t7 126q0 23 -1 51.5t-6 58t-14 57.5t-25 50t-40 35.5t-57 13.5q-38 0 -64 -15t-42.5 -39t-25 -55.5t-12 -64.5t-3.5 -65.5v-58.5z" />
<glyph unicode="c" horiz-adv-x="649" d="M43 377q0 48 4.5 96.5t16 94.5t33 85.5t54.5 69t81 46.5t114 17q65 0 113.5 -21t80.5 -58t48 -86.5t16 -106.5h-139q-1 29 -6 56.5t-18.5 48.5t-36 34t-58.5 13q-39 0 -65.5 -16t-42.5 -42t-25 -59t-12.5 -68t-4 -67t-0.5 -58q0 -24 1.5 -51t6 -54t14 -53t26 -45 t40.5 -31t58 -12q27 0 46.5 7t33.5 19t22 29t13 37t8 42t4 45h141q-3 -60 -17.5 -115t-44.5 -96.5t-79 -66.5t-119 -25q-66 0 -114.5 15t-82.5 41.5t-55.5 63t-33.5 80.5t-16.5 92t-4.5 99z" />
<glyph unicode="d" horiz-adv-x="729" d="M53 412q0 46 5 91.5t17.5 87t32.5 77.5t50 62t72 41t96 15q24 0 46 -3.5t43 -12t40 -22.5t37 -36v332h149v-1044h-139v68q-20 -24 -41 -40t-43 -25t-46 -12q-22 -3 -48 -3q-56 0 -99 17.5t-73 48t-49 72t-30 89t-15.5 97.5t-4.5 100zM207 402q0 -72 6.5 -126t23 -91 t44 -56t67.5 -19q38 0 63 12t42 32.5t26 47t13 55.5t5 58t1 55t-0.5 58.5t-4 65.5t-12 64.5t-25 55.5t-42.5 39t-64 15q-34 0 -57.5 -13.5t-39.5 -35.5t-25.5 -50t-13.5 -57.5t-5.5 -58.5t-1.5 -51z" />
<glyph unicode="e" horiz-adv-x="649" d="M43 383q0 92 14 166.5t46.5 126.5t86.5 80q56 28 136 28q68 0 114 -19t76 -51.5t46 -75.5t24 -90.5t10 -96.5t4 -95h-404q0 -23 1.5 -50t5.5 -54.5t12.5 -52.5t22.5 -45t36 -32q24 -12 56 -12q37 0 61.5 15t38.5 38.5t18 53t0 59.5h146v-14q0 -58 -15 -105 q-17 -53 -51 -91t-85 -59t-119 -21q-62 0 -114 19t-89 65t-57.5 122t-20.5 191zM196 475h250q-1 20 -2.5 42.5t-6 43.5t-12.5 39t-21.5 32.5t-33.5 23.5q-18 8 -46 8q-30 0 -51 -9t-34.5 -23.5t-21.5 -34t-12.5 -40.5t-5.5 -42t-3 -40z" />
<glyph unicode="f" horiz-adv-x="407" d="M10 652v122h106v60q0 16 1 36t5 40.5t11 40.5t19 36q21 26 48.5 39.5t59.5 18.5q27 4 55 4h12q35 -1 69 -5v-120q-34 2 -59 1.5t-40 -8t-22 -23.5t-7 -44v-76h119v-122h-119v-652h-147v652h-111z" />
<glyph unicode="g" horiz-adv-x="735" d="M45 391q0 40 4.5 85.5t16.5 88.5t32 83t51.5 70t75 48t101.5 18q24 0 47 -3t45 -11t42 -21.5t38 -33.5v59h147v-684q0 -76 -14 -143t-49 -116.5t-94.5 -78t-149.5 -28.5q-52 0 -97 12t-80.5 38t-58.5 66q-22 38 -28 94h145q8 -48 39.5 -71t77.5 -23q38 0 65 9t44 24.5 t27 36t15 42.5t7 45t2 44v25q-36 -43 -77 -61.5t-91 -18.5q-42 0 -79 8t-68 27t-56.5 50t-43 76t-27 105.5t-9.5 138.5zM198 387q0 -64 7 -115.5t23 -88t42 -56t64 -19.5q40 0 67.5 14t46 38t28.5 54t15 63t6 66t1 61q0 52 -7.5 99t-25 83t-46.5 58t-73 22q-35 0 -59.5 -14 t-40.5 -37.5t-26 -53t-14.5 -60.5t-6 -61t-1.5 -53z" />
<glyph unicode="h" horiz-adv-x="735" d="M88 0v1044h150v-336q20 20 41 35t44 24.5t49.5 14t57.5 4.5q49 0 89.5 -12t69.5 -37.5t44.5 -64t15.5 -90.5v-582h-147v553q0 26 -6 46.5t-19 35.5t-33.5 23t-50.5 8q-36 0 -64 -12t-48.5 -33t-31.5 -51t-11 -66v-504h-150z" />
<glyph unicode="i" horiz-adv-x="346" d="M98 0v774h150v-774h-150zM98 880v164h150v-164h-150z" />
<glyph unicode="j" horiz-adv-x="340" d="M8 -144q34 -4 53 2t27 19t10 35v51v811h150v-804q0 -73 -9.5 -121.5t-36 -77.5t-73.5 -41t-121 -12v138zM98 880v164h150v-164h-150z" />
<glyph unicode="k" horiz-adv-x="676" d="M88 0v1044h150v-585l258 315h176l-254 -303l258 -471h-166l-194 360l-78 -90v-270h-150z" />
<glyph unicode="l" horiz-adv-x="346" d="M98 0v1044h150v-1044h-150z" />
<glyph unicode="m" horiz-adv-x="1143" d="M88 0v774h146v-72q36 37 85 59.5t105 22.5q35 0 63.5 -7t51.5 -20t42 -31.5t35 -41.5q20 26 43.5 44.5t50.5 31t58.5 18.5t69.5 6q109 0 164 -57t55 -174v-553h-149v553q0 26 -5 46.5t-18 34.5t-34 22t-55 8q-34 -1 -61 -12.5t-47 -32.5t-30.5 -50t-10.5 -65v-504h-147 v553q0 24 -6 44.5t-19.5 35.5t-34.5 23t-51 8q-36 0 -63.5 -12t-46.5 -32.5t-30 -50t-11 -65.5v-504h-150z" />
<glyph unicode="n" horiz-adv-x="737" d="M88 0v774h148v-70q42 40 90 61t106 21q49 0 89.5 -12t69.5 -37.5t45 -64t16 -90.5v-582h-148v555q0 24 -6 44.5t-19 35.5t-33 23t-50 8q-37 0 -66.5 -11t-50 -32t-31 -51.5t-10.5 -69.5v-502h-150z" />
<glyph unicode="o" horiz-adv-x="731" d="M53 402q0 92 19.5 163t58.5 120t97.5 75t137.5 26q82 0 141 -25.5t97.5 -74.5t57 -120.5t18.5 -163.5q0 -109 -22 -188t-63 -129.5t-99 -74.5t-130 -24q-70 0 -128 23t-99 73.5t-63 129.5q-23 80 -23 190zM203 383q0 -62 8 -112t27 -85.5t50 -55.5t78 -20q48 0 80 20 t50.5 55.5t26 86t7.5 111.5q0 80 -9.5 134.5t-30 87.5t-51.5 47t-73 14t-73 -14t-51 -47t-29.5 -87t-9.5 -135z" />
<glyph unicode="p" horiz-adv-x="737" d="M88 -270v1044h140v-68q20 24 40.5 40t42.5 25t45.5 12t49.5 3q57 0 98.5 -17.5t72 -48t50 -72t30.5 -89t15 -97.5t4 -100q0 -46 -5 -91.5t-17 -87t-32.5 -77.5t-51 -62t-71.5 -41t-95 -15q-48 0 -90 16t-76 58v-332h-150zM232 345.5q0 -32.5 3.5 -65.5t12 -64.5t25 -55.5 t42 -39t64.5 -15q34 0 57.5 13.5t39.5 35.5t25 50t14 57.5t6 58.5t1 51q0 72 -7 126t-23 91t-43 56t-68 19q-38 0 -63.5 -12t-42 -32.5t-25.5 -47t-13 -55.5t-4.5 -58t-0.5 -55v-58.5z" />
<glyph unicode="q" horiz-adv-x="737" d="M62 362q0 49 4 99.5t15 98t30 89t49.5 72t72.5 48t99 17.5q26 0 49 -3t45 -12t43 -25t41 -40v68h139v-1044h-149v332q-34 -42 -76 -58t-90 -16q-54 0 -95.5 15t-72 41t-50.5 62t-32 77.5t-17 87t-5 91.5zM215 372q0 -23 1.5 -51.5t5.5 -58t13.5 -57.5t25.5 -50 t39.5 -35.5t57.5 -13.5q38 0 64 15t43 39t25 55.5t12 64.5t4 65.5v58.5t-1 55t-5 58t-13 55.5t-25.5 47t-42 32.5t-63.5 12q-40 0 -67 -19t-44 -56t-23.5 -91t-6.5 -126z" />
<glyph unicode="r" horiz-adv-x="495" d="M94 0v774h150v-84q20 28 44 47t54 29t67 12q12 1 26 1q27 0 57 -3v-137q-30 5 -56 5q-24 0 -46 -4q-46 -8 -78.5 -31.5t-50 -60t-17.5 -83.5v-465h-150z" />
<glyph unicode="s" horiz-adv-x="649" d="M24 248h144v-10q0 -63 34 -100q36 -40 110 -40q32 0 57 7t43 21t28 35t10 50q0 23 -13 42t-34 34.5t-47 27t-51 19.5q-30 10 -60.5 21t-59.5 26t-53.5 33t-43 42t-29 54t-10.5 68q0 53 18.5 94.5t52.5 70.5t81 44.5t104 15.5q65 0 115.5 -15t85 -46.5t51.5 -80.5t17 -116 h-150q1 9 1 18q0 55 -23 83q-24 32 -86 32q-26 0 -47 -6t-36 -18t-24 -30t-9 -42q0 -26 13 -44.5t33 -32t45 -23.5t49 -17q42 -15 78 -28t65 -27t51 -30t37 -38t23 -50t8 -66q0 -60 -19.5 -107t-57 -80.5t-91.5 -51t-122 -17.5q-66 0 -118.5 13.5t-89.5 46t-57.5 86 t-22.5 132.5z" />
<glyph unicode="t" horiz-adv-x="401" d="M6 654v120h106v211h150v-211h131v-120h-131v-496v-13t3.5 -12t11 -8.5t22.5 -3.5h94v-121h-143q-28 0 -53 4t-44 18.5t-30 41.5t-11 73v517h-106z" />
<glyph unicode="u" horiz-adv-x="723" d="M88 192v582h148v-584q0 -19 4 -33.5t14.5 -25t28 -16t43.5 -5.5q39 0 69 14t50.5 37.5t31.5 56t11 71.5v485h147v-774h-145l-2 68q-34 -42 -82 -62t-103 -20q-49 0 -89 12.5t-68 38t-43 64.5t-15 91z" />
<glyph unicode="v" horiz-adv-x="657" d="M2 774h156l154 -526l16 -94l16 92l156 528h156l-250 -774h-160z" />
<glyph unicode="w" horiz-adv-x="977" d="M8 774h158l123 -518l8 -90l6 84l109 524h153l113 -512l8 -84v6q1 6 1.5 15t1.5 19t1.5 19t1.5 15v6l121 516h158l-207 -774h-156l-120 549l-116 -549h-153z" />
<glyph unicode="x" horiz-adv-x="669" d="M4 0l252 391l-246 383h162l162 -274l164 274h162l-246 -383l252 -391h-164l-168 272l-166 -272h-164z" />
<glyph unicode="y" horiz-adv-x="649" d="M0 774h156l158 -526l10 -52l8 52l162 526h155l-241 -744q-6 -18 -15 -46t-20 -57.5t-22 -56t-19 -40.5q-36 -60 -85 -86t-116 -26q-24 0 -50.5 4t-50.5 10v135q28 -11 55.5 -17t47.5 -6q26 0 43.5 8t28.5 20.5t19 29.5q10 18 18 36l18 42z" />
<glyph unicode="z" horiz-adv-x="604" d="M30 0v102l372 556h-353v116h523v-106l-372 -549h374v-119h-544z" />
<glyph unicode="{" horiz-adv-x="401" d="M4 448v23q26 3 48 12.5t39 26.5t26.5 42.5t9.5 59.5v238q-6 36 2.5 66t28 53.5t47 40.5t59.5 26.5t66 11.5q34 0 66 -6l2 -10q-38 -8 -62 -24t-37 -37t-18 -46t-5 -51v-246q0 -32 -4 -57.5t-14.5 -47t-29.5 -37.5q-20 -18 -52 -30q32 -13 52 -31.5t31 -42.5t14 -53.5 t3 -62.5v-227q0 -26 5 -49.5t19 -44t38 -38t62 -30.5l-2 -10q-82 -2 -134.5 9.5t-83 37.5t-42 69.5t-11.5 106.5v203q0 34 -9.5 61t-26.5 46.5t-39 31.5t-48 16z" />
<glyph unicode="|" horiz-adv-x="366" d="M121 0v1044h125v-1044h-125z" />
<glyph unicode="}" horiz-adv-x="401" d="M4 -123q38 13 62 30.5t37.5 38t18.5 44.5t5 49v227q0 33 3.5 62.5t14.5 53.5t31 43t52 31q-32 12 -52 29t-30.5 38.5t-14.5 47.5q-4 25 -4 57v246q0 26 -4.5 51t-18 46t-37 37t-61.5 24l2 10q54 10 103 1.5t86 -33.5t58 -65.5t21 -94.5v-238q0 -34 10 -59.5t27 -42.5 t39 -26.5t48 -12.5v-23q-26 -4 -48 -16t-39 -31.5t-27 -47t-10 -60.5v-203q0 -63 -11.5 -106.5t-42 -69.5t-82.5 -37t-134 -10z" />
<glyph unicode="~" horiz-adv-x="731" d="M49 295q16 32 34.5 63.5t40.5 57.5t50 42.5t62 16.5q22 0 46.5 -7t50 -17.5t50.5 -23.5t47 -23.5t40.5 -17.5t31.5 -7q18 0 35 12t32 31t28 42.5t21 45.5l66 -94q-14 -32 -33 -62t-42 -53.5t-51 -38.5q-26 -14 -58 -14q-24 0 -46.5 7t-44.5 18t-44 23t-44 23t-44.5 18 t-44.5 7q-21 0 -37.5 -12.5t-30.5 -32t-25 -44t-23 -48.5z" />
<glyph unicode="&#xa2;" horiz-adv-x="731" d="M82 510q0 44 3.5 88.5t13 87t26.5 80.5t44 68t65 51q40 21 92 29v130h98v-126q56 -6 97 -30t68 -60t40.5 -82t13.5 -99h-139q-1 24 -4.5 47.5t-12.5 43t-24.5 34t-38.5 20.5v-544q26 8 41.5 25t24 40t12.5 51t6 58h141q-3 -56 -16 -108t-39 -93t-68 -67.5t-102 -32.5 v-121h-98v123q-52 7 -91 26t-66 46t-44 63t-26.5 76t-13 85t-3.5 91zM236 490q0 -20 0.5 -43t3.5 -46t9 -46t16 -42t24.5 -35t36.5 -24v530q-24 -12 -40 -32t-26 -46t-15 -55t-7 -58t-2 -55.5v-47.5z" />
<glyph unicode="&#xa3;" horiz-adv-x="731" d="M20 80q38 28 71 57t57 61t37 68.5t13 79.5q0 31 -6 57q-7 25 -18 53h-148v89h99q-28 50 -45.5 102.5t-17.5 110.5q0 68 25 121t70 90t105 56t129 19q66 0 120.5 -17t94.5 -49t64 -80t30 -110q2 -14 2 -29t-1 -27q-1 -14 -3 -28h-151v17t-0.5 24t-1.5 26t-3 21 q-12 59 -54 89.5t-107 30.5q-42 0 -72.5 -13t-50.5 -35t-29.5 -53t-9.5 -67q0 -26 6 -51t16 -50t23 -49.5t27 -48.5h243v-89h-202q6 -18 11 -38t5 -46q0 -32 -8 -63t-22 -59.5t-33 -55t-39 -48.5q20 4 41 7t41 3q43 0 85.5 -10t88.5 -21q43 -10 88.5 2.5t85.5 42.5l55 -123 q-28 -19 -53 -31t-49 -19t-48.5 -9t-52.5 -2q-32 0 -63 7.5t-62 17t-63 17t-68 7.5q-23 0 -44 -4.5t-41.5 -12t-41.5 -19t-45 -25.5z" />
<glyph unicode="&#xa5;" horiz-adv-x="829" d="M4 1044h184l226 -485l235 485h177l-316 -590h176v-102h-202v-70h202v-104h-202v-178h-152v178h-203v104h203v70h-203v102h176z" />
<glyph unicode="&#xa9;" horiz-adv-x="1057" d="M45 496q0 66 17.5 128t48.5 115.5t75.5 98t98 75.5t115.5 48.5t128 17.5t128 -17.5t116 -48.5t98 -75.5t75.5 -98t49 -115.5t17.5 -128t-17.5 -128t-49 -116t-75.5 -98t-98 -75.5t-116 -48.5q-62 -18 -128 -18t-128 17.5t-115.5 49t-98 75.5t-75.5 98t-48.5 116 t-17.5 128zM162 496q0 -50 13 -97.5t37 -88t57 -74t74 -57.5t88 -37t97 -13q76 0 143 28.5t117 78.5t78.5 117t28.5 143q0 51 -13 97.5t-37 87.5t-57.5 74t-74 57t-87.5 37q-48 13 -98 13t-97 -13t-88 -37t-74 -57t-57 -74t-37 -88t-13 -97zM291 498q0 59 16.5 110t47 89 t74.5 59q43 22 99 22q38 0 73 -14.5t63.5 -42.5t48 -68.5t27.5 -93.5h-103q-6 27 -16.5 49t-24.5 37.5t-31 24t-37 8.5q-32 0 -57 -14t-42.5 -39t-26.5 -58t-9 -69q0 -37 9.5 -71.5t26.5 -60.5t43 -41.5t60 -15.5q19 0 36.5 8.5t31.5 24.5t23 38t12 50h103q-6 -52 -24.5 -93 t-46 -69t-62.5 -43.5t-73 -15.5q-56 0 -100 22t-75.5 60.5t-48.5 91.5t-17 115z" />
<glyph unicode="&#xab;" horiz-adv-x="731" d="M108 385v99l250 237v-153l-139 -136l139 -135v-157zM370 385v99l250 237v-153l-138 -136l138 -135v-157z" />
<glyph unicode="&#xad;" horiz-adv-x="508" d="M53 293v121h401v-121h-401z" />
<glyph unicode="&#xae;" horiz-adv-x="1057" d="M45 496q0 66 17.5 128t48.5 115.5t75.5 98t98 75.5t115.5 48.5t128 17.5t128 -17.5t116 -48.5t98 -75.5t75.5 -98t49 -115.5t17.5 -128t-17.5 -128t-49 -116t-75.5 -98t-98 -75.5t-116 -48.5q-62 -18 -128 -18t-128 17.5t-115.5 49t-98 75.5t-75.5 98t-48.5 116 t-17.5 128zM162 496q0 -50 13 -97.5t37 -88t57 -74t74 -57.5t88 -37t97 -13q76 0 143 28.5t117 78.5t78.5 117t28.5 143q0 51 -13 97.5t-37 87.5t-57.5 74t-74 57t-87.5 37q-48 13 -98 13t-97 -13t-88 -37t-74 -57t-57 -74t-37 -88t-13 -97zM350 226v540h218q35 0 67.5 -8 t57.5 -26.5t40 -48t15 -73.5q0 -36 -10 -63t-27 -45.5t-39 -29.5q-24 -12 -48 -18l134 -228h-119l-125 226h-62v-226h-102zM452 545h74q19 0 40.5 0.5t38.5 6.5t28.5 20t11.5 40q0 22 -7.5 34t-20.5 18.5t-30 8t-34 1.5h-101v-129z" />
<glyph unicode="&#xbb;" horiz-adv-x="731" d="M110 140v157l140 135l-140 136v153l250 -237v-99zM372 140v157l140 135l-140 136v153l250 -237v-99z" />
<glyph unicode="&#xbc;" horiz-adv-x="1118" d="M76 796v97q35 0 62.5 6.5t47.5 18.5t32 32t18 50h100v-596h-119v411q-30 -10 -65.5 -14.5t-75.5 -4.5zM207 0l637 1000h127l-637 -1000h-127zM654 137v93l249 386h107v-380h53v-99h-53v-137h-117v137h-239zM762 236h131v198z" />
<glyph unicode="&#xbd;" horiz-adv-x="1118" d="M76 796v97q35 0 62.5 6.5t47.5 18.5t32 32t18 50h100v-596h-119v411q-30 -10 -65.5 -14.5t-75.5 -4.5zM166 0l637 1000h127l-637 -1000h-127zM676 0q2 36 4.5 67t12 60t28 56t51.5 57l106 94q13 12 23.5 23t17.5 22t11 24t4 29q0 17 -3 30.5t-11 23.5t-21 15t-33 5 q-24 0 -37 -10.5t-20 -28t-8 -39.5t0 -45h-119v49q0 39 14 72.5t39 57.5t60 37t75 13q47 0 82.5 -13.5t59 -38t35.5 -57.5t12 -71q0 -34 -7.5 -59t-21.5 -46t-35 -40t-47 -41l-104 -90q-10 -8 -21 -22t-14 -32h256v-102h-389z" />
<glyph unicode="&#xbe;" horiz-adv-x="1118" d="M74 592h116q-4 -24 -1 -45t12 -36.5t26 -24.5t41 -9q78 0 78 80q0 28 -4 46.5t-16.5 28t-36 13t-63.5 2.5v111q22 -1 40 -0.5t31.5 7.5t21 21t7.5 42q0 18 -3 31t-9.5 22t-18 13.5t-29.5 4.5q-22 0 -35 -7t-20 -19.5t-10 -30.5t-3 -39h-114q-1 44 9.5 80t32.5 62t58 41 q34 14 84 14q40 0 74 -12t57.5 -33t36 -51t12.5 -66q0 -40 -13 -74t-44 -56q38 -22 57 -56t19 -78t-11.5 -81t-36.5 -63t-63 -40.5t-90 -14.5q-55 0 -93.5 16.5t-61.5 45.5t-32 68.5t-5 86.5zM254 0l635 1000h131l-635 -1000h-131zM654 137v93l249 386h107v-380h53v-99h-53 v-137h-117v137h-239zM762 236h131v198z" />
<glyph unicode="&#xd7;" horiz-adv-x="766" d="M66 600l92 82l225 -256l225 256l92 -84l-233 -264l231 -262l-94 -84l-221 254l-221 -252l-94 84l231 260q-59 66 -117 133.5t-116 132.5z" />
<glyph unicode="&#xf7;" horiz-adv-x="737" d="M53 293v121h631v-121h-631zM286 78q0 17 6 31.5t16.5 25.5t25 17t30.5 6q17 0 31.5 -6t25.5 -17t17 -25.5t6 -31.5t-6 -31.5t-17 -24.5t-25 -16t-32 -6q-17 0 -31 6t-24.5 16t-16.5 24.5t-6 31.5zM286 628q0 17 6 32t16.5 25.5t25 16.5t30.5 6q17 0 31.5 -6t25.5 -16.5 t17 -25t6 -32.5q0 -17 -6 -31t-17 -24.5t-25 -16t-32 -5.5q-17 0 -31 5.5t-24.5 16t-16.5 24.5t-6 31z" />
<glyph unicode="&#xe01;" horiz-adv-x="784" d="M37 682q27 54 64 94.5t82 67t97.5 39t110.5 12.5q40 0 78.5 -6.5t73.5 -20t64 -33t51 -46.5t34 -59t12 -72v-658h-151v628q0 32 -11.5 58t-32.5 44t-51 27t-67 9q-31 0 -58.5 -5t-51 -14t-41.5 -22t-29 -29q6 -10 11.5 -22t9 -26t6 -28t2.5 -28v-592h-150v598 q0 30 -12 52t-41 32z" />
<glyph unicode="&#xe02;" horiz-adv-x="665" d="M18 758v126h228q20 -116 34.5 -206t25.5 -156.5t18.5 -113l12.5 -77.5t7.5 -48t4 -25.5t1.5 -9.5v-2l106 638h156l-160 -884h-202l-138 758h-94z" />
<glyph unicode="&#xe03;" horiz-adv-x="712" d="M14 884h142q0 -14 3 -26.5t10 -22.5t17.5 -16t24.5 -6q24 0 38.5 19.5t20.5 51.5h140v-151q0 -28 -7 -50.5t-20 -42t-31 -39t-40 -42.5q-26 -28 -43 -56.5t-19 -62.5v-188q0 -32 8.5 -57t24 -43t36.5 -27t47 -9t48 9t38 27t25 43t9 57v632h147v-648q0 -60 -22.5 -106.5 t-59.5 -78t-85 -47.5t-100 -16q-53 0 -101.5 16t-85.5 47.5t-59 78t-22 106.5v172q0 42 4 70t13.5 50t26.5 42t44 46q10 10 21 20.5t21 22t18 25.5t14 31q-16 -10 -36 -14.5t-40 -4.5q-12 0 -29 2.5t-36 9.5t-37.5 19.5t-33.5 33.5t-24.5 51t-9.5 72z" />
<glyph unicode="&#xe04;" horiz-adv-x="778" d="M80 0v649q0 59 23 105t64.5 77t98 47.5t123.5 16.5q66 0 122.5 -16.5t98.5 -47.5t65 -77t23 -105v-649h-149v618q0 33 -8.5 60.5t-27.5 46.5t-49.5 30t-74.5 11t-74.5 -10.5t-49.5 -29.5t-27 -46.5t-8 -61.5v-176q20 26 41 44t48 29t60 15t75 0v-141q-54 10 -96 2 t-70.5 -31t-43 -59t-14.5 -82v-219h-150z" />
<glyph unicode="&#xe05;" horiz-adv-x="792" d="M80 0v649q0 48 16 88t46 71t73 51.5t97 29.5l84 -93l77 93q54 -8 98.5 -28.5t75.5 -51.5t48 -71t17 -89v-649h-151v618q0 37 -9.5 66.5t-35.5 48.5l-96 -96q-11 -11 -25.5 -11t-26.5 11l-96 96q-13 -9 -21.5 -21t-13 -26t-6 -31t-1.5 -37v-176q20 26 41 44t48 29t60 15 t75 0v-141q-54 10 -96 2t-70.5 -31t-43 -59t-14.5 -82v-219h-150z" />
<glyph unicode="&#xe06;" horiz-adv-x="778" d="M26 884h142q0 -14 3.5 -26.5t10 -22.5t17.5 -16t24 -6q25 0 39 19.5t20 51.5h140v-151q0 -28 -7 -50.5t-20 -42t-31 -39t-40 -42.5q-26 -28 -43 -56.5t-19 -62.5v-124q0 -38 8 -73.5t27 -63t51 -44t80 -16.5q33 0 56 9.5t37.5 27.5t21 42.5t6.5 55.5v630h149v-642 q0 -68 -17 -115.5t-48 -77t-74 -43.5t-94 -14q-32 0 -60.5 6.5t-54 18.5t-48 28.5t-42.5 36.5l2 -82h-150v408q0 42 4 70t13 50t26 42t43 46q10 10 21 20.5t21 22t18 25.5t14 31q-16 -10 -36 -14.5t-40 -4.5q-12 0 -29 2.5t-36 9.5t-37.5 19.5t-33.5 33.5t-24.5 51t-9.5 72z " />
<glyph unicode="&#xe07;" horiz-adv-x="624" d="M26 532h158l140 -388q4 -12 13 -20t23 -8q16 0 24.5 11t8.5 27v602h-98v128h250v-720q0 -44 -14 -77t-39 -56t-59.5 -34t-76.5 -11q-32 0 -61 9t-52 25t-41 38t-28 50z" />
<glyph unicode="&#xe08;" horiz-adv-x="674" d="M56 612q0 62 18.5 114t55.5 90t92 58.5t128 20.5q35 0 69.5 -6.5t66.5 -21.5t59 -40t46 -61t28 -84t5 -110q-2 -28 -6 -57t-12 -62t-20 -75t-29 -96t-40.5 -123t-53.5 -159h-183l-124 416h-94v116h208l105 -356q16 53 28.5 94.5t22 75.5t16.5 61t12.5 51.5t8.5 48t6 48.5 q4 42 -0.5 79.5t-19.5 67t-40 47t-61 17.5q-64 0 -98 -36t-37 -118h-157z" />
<glyph unicode="&#xe09;" horiz-adv-x="753" d="M72 649q2 63 27 109t66.5 77t95 45.5t111.5 14.5t113 -14.5t97 -43.5t67 -73t25 -102v-662h-146l2 84q-46 -44 -97 -69t-115 -25q-52 0 -96 14t-76 42t-50 71t-18 102v313h152v-294q0 -62 32 -90.5t92 -28.5q86 0 129 49.5t43 140.5v324q0 65 -40 99t-114 34 q-69 0 -105.5 -27t-43.5 -90h-151z" />
<glyph unicode="&#xe0a;" horiz-adv-x="710" d="M37 744v130q26 6 49.5 9t43.5 5t35 2.5t23 0.5q40 0 72 -10.5t53 -31.5t32 -50t11 -66q0 -26 -4 -44t-13.5 -34.5t-25 -36.5t-39.5 -48q-10 -13 -16 -27.5t-10 -31.5t-5 -36t-1 -41v-182q0 -32 9 -56.5t25 -41.5t38 -26q20 -9 46 -9t48.5 8.5t38.5 25.5t25.5 42t9.5 57 v176q0 40 -9 64.5t-26 38t-41.5 18.5t-56.5 7v96q44 0 71.5 16.5t42.5 46.5t21 73q6 42 6 96h157q0 -42 -4.5 -83t-16.5 -78t-35 -66t-59 -47q33 -14 53 -36.5t30.5 -48t14 -50.5t3.5 -45v-192q0 -60 -21.5 -106t-59 -78t-87 -48t-105.5 -16q-58 0 -107 16t-85 48t-57 78 t-21 106v192q0 44 2.5 73t10 52t22 42t37.5 44q12 12 22 24t18.5 23t13.5 20.5t5 18.5q0 24 -13.5 32.5t-35.5 8.5q-18 0 -37.5 -2.5t-37.5 -6t-33 -7.5q-16 -4 -27 -8z" />
<glyph unicode="&#xe0b;" horiz-adv-x="751" d="M28 884h142q0 -14 3 -26.5t8.5 -22.5t14.5 -16t21 -6q14 0 23.5 5.5t16 15.5t11 23t6.5 27h138v-134q0 -34 -18 -78t-54 -94q-13 -18 -23.5 -35t-18.5 -33t-12 -33q-6 -17 -6 -37v-188q0 -32 9 -56.5t25 -41.5t38 -26t48 -9t48 8.5t38 25.5t25 42t9 57v176q0 40 -8.5 65 t-25 40t-41.5 21t-57 7v87q44 0 71 17t43 48t21 75q5 42 5 96h158q0 -42 -4.5 -83t-17 -78t-34.5 -66t-58 -47q33 -14 52.5 -36.5t30 -48t14 -50.5t3.5 -45v-192q0 -60 -22 -106t-59 -78t-87 -48q-48 -16 -104 -16q-58 0 -107.5 16t-86 48t-57 78t-20.5 106v170q0 38 2.5 63 t9.5 47t21 43t38 49q22 26 39 49t23 47q-14 -4 -33 -9t-37 -5q-12 0 -29 3t-35 10t-36 20.5t-32 35t-23 51.5t-9 72z" />
<glyph unicode="&#xe0c;" horiz-adv-x="1192" d="M37 682q27 54 65 94.5t83.5 67t97 39t106.5 12.5q62 0 118 -15.5t99.5 -46.5t68.5 -75t25 -100v-328q0 -32 10 -68t29.5 -67t49 -50.5t69.5 -19.5q28 0 48 9.5t32 27.5t17 43t5 55v624h152v-661q0 -58 -18 -101t-48 -71t-70 -41.5t-85 -13.5q-28 0 -55.5 6t-53 18t-48 28 t-40.5 36q0 -9 0.5 -20.5l1 -23t0.5 -22v-18.5h-147v628q0 32 -11.5 58t-32.5 44t-51 27t-65 9q-28 0 -54.5 -5t-49.5 -14t-42 -22t-30 -29q6 -10 11.5 -22t9.5 -26t7 -28t3 -28v-463h92v-129h-244v598q0 30 -13 52t-42 32z" />
<glyph unicode="&#xe0d;" horiz-adv-x="1202" d="M37 684q27 54 65.5 94t85 66t98.5 38.5t107 12.5q62 0 117.5 -15.5t98.5 -46.5t68 -75t25 -100v-398q0 -29 8 -53.5t22.5 -42.5t36 -28.5t48.5 -10.5q34 0 63 14t49.5 37.5t32 53.5t11.5 61v593h149v-856q0 -68 -18 -126t-54.5 -101t-93 -67.5t-132.5 -24.5 q-50 0 -97 13.5t-84 41t-63 70t-33 100.5h145q4 -26 17 -44t31.5 -30t39.5 -18t41 -6q44 0 73.5 14t48 37t26.5 50.5t8 54.5v68q-34 -36 -79.5 -50t-101.5 -14q-43 0 -86.5 14t-78.5 42t-57.5 71t-22.5 103v405q0 32 -11.5 57t-32.5 43t-50 27.5t-64 9.5q-28 0 -55 -5.5 t-51 -15t-43.5 -22.5t-30.5 -29q6 -8 11.5 -20t9.5 -26t7 -29t3 -29v-463h92v-129h-244v598q0 14 -3 28t-9 25t-17 20t-26 13z" />
<glyph unicode="&#xe0e;" horiz-adv-x="805" d="M16 0v129h82v469q0 30 -15 52t-44 32q27 54 65.5 94.5t86 67t101.5 39t112 12.5q38 0 77 -6.5t74.5 -20t66.5 -33.5t53.5 -46.5t36 -59.5t13.5 -73v-942h-141q-12 15 -29 28.5t-38 24.5t-46 17.5t-55 6.5q-28 0 -56 -7.5t-55 -20.5t-51 -31.5t-43 -40.5v147 q18 13 40.5 26.5t48.5 23.5t55 17t61 7q26 0 49 -3.5t43 -9t36 -12.5q18 -7 30 -14v755q0 32 -12.5 57.5t-35 43t-53.5 27.5t-69 10q-32 0 -61.5 -5t-54 -14t-43.5 -22t-30 -29q6 -8 12 -20t10.5 -26t7.5 -29t3 -29v-592h-232z" />
<glyph unicode="&#xe0f;" horiz-adv-x="805" d="M16 0v129h82v469q0 30 -15 53t-44 31q27 54 65.5 94.5t86 67t101.5 39t112 12.5q38 0 77 -6.5t74.5 -19.5t66.5 -33t53.5 -46t36 -59t13.5 -73v-944h-147q-3 12 -8.5 25t-14.5 24t-21 18.5t-28 7.5t-29 -7.5t-21 -18.5t-13 -24t-5 -25h-126q0 8 -3 21.5t-9.5 26t-17.5 22 t-28 9.5q-14 0 -25 -7.5t-18 -18.5t-11 -25t-4 -28h-138q0 52 14.5 90t39.5 63.5t58.5 38t71.5 12.5q44 0 76 -15t54 -47q25 30 54.5 43t57.5 13q31 0 51.5 -9.5t38.5 -23.5v749q0 32 -12.5 58t-35 44t-53.5 28t-69 10q-32 0 -61.5 -5.5t-54 -15t-43.5 -22.5t-30 -29 q6 -8 12 -19.5t10.5 -25.5t7.5 -29.5t3 -29.5v-592h-232z" />
<glyph unicode="&#xe10;" horiz-adv-x="674" d="M56 -305q-2 38 4 66.5t17 49.5t26.5 35t32 22t32.5 12t28 4q31 0 54.5 -12t38.5 -28q17 20 39 28q20 9 42 9q17 0 35.5 -6.5t30.5 -18.5v68h136v-229h-136q-4 31 -13 48t-30 17q-12 0 -19.5 -5t-12.5 -14t-7 -21t-2 -25h-96q-2 14 -4 25.5t-7 20.5t-11.5 14t-16.5 5 t-18 -5.5t-13 -15t-7.5 -21t-2.5 -23.5h-120zM56 612q0 62 18.5 114t55.5 90t92 58.5t128 20.5q30 0 60 -4.5t59 -16.5q14 6 24.5 15t16.5 20t9 21t3 18h162q-1 -22 -7.5 -45t-19.5 -44t-33 -39t-48 -30q26 -37 40 -90.5t8 -127.5q-2 -28 -6 -57t-12 -62t-20 -75t-29 -96 t-40.5 -123t-53.5 -159h-183l-124 416h-94v116h208l105 -356q16 53 28.5 94.5t22 75.5t16.5 61t12.5 51.5t8.5 48t6 48.5q4 42 -0.5 79.5t-19.5 67t-40 47t-61 17.5q-64 0 -98 -36t-37 -118h-157z" />
<glyph unicode="&#xe11;" horiz-adv-x="811" d="M28 884h142q0 -14 3.5 -26t10.5 -22t17.5 -15.5t24.5 -5.5q26 0 39 19.5t11 49.5h142v-67q24 24 46 39.5t44 24.5t46 12.5t52 3.5q30 0 53 -8t39 -26.5t24.5 -50t8.5 -77.5v-735h-151v733q0 6 -0.5 11.5t-2 11t-5.5 9t-11 3.5q-20 0 -44 -17t-49.5 -45t-51.5 -62.5 t-49 -69.5t-41 -66.5t-27 -53.5q-9 -20 -14 -37t-7 -32t-2 -29v-26v-330h-149v309q0 20 0.5 38.5t2.5 37.5t6 37.5t12 36.5q12 28 32.5 61.5t41 68t37.5 68t23 62.5q-16 -11 -37 -19t-47 -8q-12 0 -30 2t-38 9t-39 20.5t-34 35t-23 52.5t-6 73z" />
<glyph unicode="&#xe12;" horiz-adv-x="1233" d="M86 0v656q0 48 18 88t50 71t76 51t98 29l86 -92l82 92q54 -8 99 -28t78 -51t51 -71.5t18 -88.5v-326q0 -20 3.5 -43t11 -46t20 -44.5t29.5 -38t39.5 -26t49.5 -9.5q28 0 47.5 10.5t31.5 28.5t18 43t6 55v624h149v-661q0 -58 -17 -101t-46.5 -71t-68.5 -41.5t-83 -13.5 q-58 0 -108 22t-86 66l2 -84h-150v624q0 40 -12 70t-42 48l-98 -97q-12 -10 -26 -11.5t-27 11.5l-94 97q-13 -9 -23 -22.5t-17 -28.5t-10 -32t-3 -35v-384q16 22 30 42t28.5 40t30 41t31.5 47h-80v118h246v-106l-296 -422h-142z" />
<glyph unicode="&#xe13;" horiz-adv-x="1194" d="M37 682q27 54 65 94t84 66t98 38.5t105 12.5q62 0 118.5 -15.5t99.5 -46.5t69 -75t26 -100v-396q0 -30 6 -55t18 -43t32.5 -27.5t50.5 -9.5q42 0 70.5 19.5t46.5 49.5t27 66t9 70v554h152v-884h-150l2 84q-19 -19 -41.5 -35.5t-48.5 -28t-52.5 -18t-53.5 -6.5 q-46 0 -85.5 13.5t-69 41.5t-47 70.5t-17.5 101.5v403q0 32 -12 58t-33.5 43.5t-51.5 27t-65 9.5q-28 0 -54.5 -5t-50.5 -14.5t-43 -22t-30 -28.5q6 -10 12 -22t10.5 -26t7.5 -28t3 -28v-461h92v-129h-244v596q0 30 -14 52.5t-41 33.5z" />
<glyph unicode="&#xe14;" horiz-adv-x="803" d="M80 0v649q0 59 25 105t68.5 77t102 47.5t124.5 16.5t125 -16.5t103 -47.5t69.5 -77t25.5 -105v-649h-151v618q0 33 -10 60.5t-31 46.5t-54 30t-77 11t-76.5 -10.5t-53 -29.5t-29.5 -46.5t-9 -61.5v-378l120 170h-80v118h246v-106l-297 -422h-141z" />
<glyph unicode="&#xe15;" horiz-adv-x="815" d="M80 0v649q0 48 18 88t50 71t76 51.5t98 29.5l86 -93q20 20 42 46t40 47q54 -8 99 -28.5t77.5 -51.5t50.5 -71t18 -89v-649h-151v618q0 20 -3 38t-9 32.5t-16 26t-26 20.5l-98 -96q-12 -12 -26 -12.5t-27 12.5l-95 96q-26 -18 -39 -49.5t-13 -67.5v-378l120 170h-80v118 h246v-106l-297 -422h-141z" />
<glyph unicode="&#xe16;" horiz-adv-x="784" d="M37 682q27 54 64 94.5t82 67t98 39t110 12.5q40 0 78.5 -6.5t73.5 -20t64 -33t51 -46.5t34 -59t12 -72v-658h-151v628q0 32 -11.5 58t-32.5 44t-51 27t-67 9q-62 0 -108.5 -19t-69.5 -51q6 -10 11.5 -22t9 -26t6 -28t2.5 -28v-463h92v-129h-244v598q0 30 -12 52t-41 32z " />
<glyph unicode="&#xe17;" horiz-adv-x="772" d="M80 0v884h148v-83q46 43 102 68.5t116 25.5q52 0 97 -13.5t78 -41.5t52 -71t19 -101v-668h-150v631q0 30 -8 54.5t-25 42.5t-42 28t-57 10q-46 0 -80 -17t-56.5 -44.5t-33 -64t-10.5 -75.5v-565h-150z" />
<glyph unicode="&#xe18;" horiz-adv-x="739" d="M74 684q0 46 19 85t55 67.5t86.5 44.5t113.5 16q70 0 126 -16t94.5 -48.5t59 -82.5t19.5 -117h-151q0 65 -36 100t-102 35q-31 0 -55 -6t-40.5 -16.5t-25.5 -24t-9 -29.5q0 -22 10.5 -36.5t28 -25.5t41.5 -20q22 -8 48 -16l44 -14q46 -16 82.5 -28.5t65 -26t50 -29.5 t35 -39t20.5 -55q7 -30 7 -74v-105q0 -58 -25 -101.5t-66 -72.5t-93 -43t-108 -14t-108 14t-92 43t-65 72t-25 102v223h152v-192q0 -64 35 -98.5t103 -34.5t105 34t37 99v68q0 30 -10.5 48.5t-28.5 31t-42.5 21.5t-51.5 19l-59 21q-49 18 -93.5 37.5t-78 45.5t-53 59 t-19.5 79z" />
<glyph unicode="&#xe19;" horiz-adv-x="772" d="M80 217v667h150v-630q0 -30 8 -55t25 -43t42 -27.5t57 -9.5q46 0 80 16.5t56.5 44.5t33 64t10.5 76v564h150v-884h-147v84q-46 -44 -102.5 -69t-116.5 -25q-52 0 -97 13.5t-78 41.5t-52 70.5t-19 101.5z" />
<glyph unicode="&#xe1a;" horiz-adv-x="772" d="M80 232v652h152v-630q0 -32 11 -57t32 -42.5t49 -26.5t63 -9q34 0 62.5 9t48.5 26.5t31 42.5t11 57v630h152v-652q0 -58 -24 -103t-66 -75.5t-97.5 -46t-117.5 -15.5t-117.5 15.5t-97.5 46t-67 74.5q-25 46 -25 104z" />
<glyph unicode="&#xe1b;" horiz-adv-x="772" d="M80 232v652h152v-630q0 -32 11 -57t32 -42.5t49 -26.5t63 -9q34 0 62.5 9t48.5 26.5t31 42.5t11 57v958h152v-980q0 -58 -24 -103t-66 -75.5t-97.5 -46t-117.5 -15.5t-117.5 15.5t-97.5 46t-67 74.5q-25 46 -25 104z" />
<glyph unicode="&#xe1c;" horiz-adv-x="835" d="M80 217v667h242v-126h-90v-514q0 -64 14 -94q12 -29 40 -29q21 0 32.5 11.5t16.5 32.5t6 49q1 26 1 58v262h152v-262q0 -32 1 -59t7.5 -48t19 -32.5t33.5 -11.5q26 0 37 29q12 30 12 94v640h152v-667q0 -57 -13.5 -99t-37.5 -69.5t-57.5 -41t-73.5 -13.5q-50 0 -91 20 t-65 58q-24 -38 -60 -58q-38 -20 -90 -20q-42 0 -77 13.5t-59.5 41t-38 69.5t-13.5 99z" />
<glyph unicode="&#xe1d;" horiz-adv-x="835" d="M80 217v667h242v-126h-90v-514q0 -64 14 -94q12 -29 40 -29q21 0 32.5 11.5t16.5 32.5t6 49q1 26 1 58v262h152v-262q0 -32 1 -59t7.5 -48t19 -32.5t33.5 -11.5q26 0 37 29q12 30 12 94v968h152v-995q0 -57 -13.5 -99t-37.5 -69.5t-57.5 -41t-73.5 -13.5q-50 0 -91 20 t-65 58q-24 -38 -60 -58q-38 -20 -90 -20q-42 0 -77 13.5t-59.5 41t-38 69.5t-13.5 99z" />
<glyph unicode="&#xe1e;" horiz-adv-x="973" d="M49 884h160l86 -548l2 -24l4 26l111 546h153l109 -548l2 -27q0 1 0.5 5t1 9t1.5 8.5t1 4.5l86 548h160l-158 -884h-164l-116 588l-118 -588h-163z" />
<glyph unicode="&#xe1f;" horiz-adv-x="973" d="M49 884h160l86 -548l2 -24l4 26l111 546h153l109 -548l2 -27q0 1 0.5 5t1 9t1.5 8.5t1 4.5l137 876h160l-209 -1212h-164l-116 588l-118 -588h-163z" />
<glyph unicode="&#xe20;" horiz-adv-x="782" d="M16 0v129h82v469q0 30 -13 52t-42 32q27 54 63 94.5t81 67t97 39t109 12.5q40 0 78 -6.5t72.5 -20t63.5 -33t50 -46.5t33 -59t12 -72v-658h-151v628q0 66 -41 102t-117 36q-62 0 -106 -19t-66 -51q6 -10 11 -22t8.5 -26t5.5 -28t2 -28v-592h-232z" />
<glyph unicode="&#xe21;" horiz-adv-x="772" d="M80 0v884h150v-564q0 -39 10.5 -75.5t33 -64.5t56.5 -44.5t80 -16.5q33 0 57.5 9.5t41.5 27.5t25 43t8 55v630h150v-667q0 -58 -19 -101t-52 -71t-78 -41.5t-97 -13.5q-60 0 -116 25t-102 69v-84h-148z" />
<glyph unicode="&#xe22;" horiz-adv-x="753" d="M60 258q0 29 2.5 61.5t14 63t33.5 57.5q22 28 60 46q-36 14 -57.5 36t-33 47t-14.5 52t-3 53q0 42 10 73t28.5 55t42 39.5t50 25t54 13.5t52.5 4h117v-128h-82q-13 0 -34 -2t-40.5 -10.5t-34 -27t-14.5 -50.5q0 -36 10.5 -58t29 -35t42.5 -19t51 -7h72v-127h-72 q-20 -1 -37 -3.5t-32 -8.5t-27.5 -16t-21 -27t-13 -42t-4.5 -59t9.5 -61t29.5 -46t51 -30t73 -11q44 0 74 11.5t48 32t25 48.5t7 62v614h148v-642q0 -60 -20 -107t-58 -80t-94 -50t-130 -17q-68 0 -125 17t-99 50.5t-65 84t-23 118.5z" />
<glyph unicode="&#xe23;" horiz-adv-x="626" d="M37 272h153q-2 -27 3 -54.5t18 -50t35 -37t55 -14.5q28 0 51.5 7.5t39.5 24t25 42t9 62.5q0 33 -14 58t-38 44.5t-55 35.5t-65 32q-47 22 -84.5 44t-64.5 50t-41.5 66t-14.5 90q0 54 20.5 96t55.5 71t80.5 43.5t95.5 14.5q129 0 191.5 -66.5t62.5 -197.5h-149 q0 30 -7 55.5t-20.5 43t-33.5 27t-46 9.5q-45 0 -70.5 -24t-25.5 -70q0 -24 12.5 -44t36 -38.5t58 -37.5t77.5 -42q25 -13 49 -26.5t45 -28.5t39 -33.5t30.5 -42t20 -52.5t7.5 -67q0 -62 -17 -112t-51 -86t-86 -56t-123 -20q-59 0 -110 17.5t-88 53t-55 89.5q-18 52 -11 124 z" />
<glyph unicode="&#xe24;" horiz-adv-x="784" d="M37 682q27 54 64 94.5t82 67t98 39t110 12.5q40 0 78.5 -6.5t73.5 -20t64 -33t51 -46.5t34 -59t12 -72v-944h-151v914q0 32 -11.5 58t-32.5 44t-51 27t-67 9q-62 0 -108.5 -19t-69.5 -51q6 -10 11.5 -22t9 -26t6 -28t2.5 -28v-463h92v-129h-244v598q0 30 -12 52t-41 32z " />
<glyph unicode="&#xe25;" horiz-adv-x="753" d="M47 252q0 8 1 24t5.5 36.5t13.5 43t25.5 44.5t41 40t60.5 29l275 86q10 3 20.5 11t18.5 20t13 27t5 34q0 32 -11 54.5t-31.5 36.5t-49 21t-62.5 7q-36 0 -63 -11t-46.5 -30.5t-30.5 -47.5q-10 -29 -13 -63h-151q2 72 28 125t70 88t102.5 51.5t124.5 16.5q62 0 106.5 -13 t75.5 -34t50.5 -47.5t30 -54t14.5 -53t4 -44.5v-649h-148v456q-9 -4 -18.5 -8t-22.5 -9t-31 -11t-43 -15t-60 -20t-81 -27q-20 -6 -33.5 -18t-22.5 -29t-13.5 -36t-4.5 -39q0 -26 9.5 -48t27 -38t41.5 -24q26 -9 56 -9q11 0 30 5q20 4 46 12v-124q-23 -12 -49.5 -18 t-47.5 -6q-68 0 -117.5 17t-81.5 50t-47.5 81t-15.5 110z" />
<glyph unicode="&#xe26;" horiz-adv-x="782" d="M16 0v129h82v469q0 30 -13 52t-42 32q27 54 63 94.5t81 67t97 39t109 12.5q40 0 78 -6.5t72.5 -20t63.5 -33t50 -46.5t33 -59t12 -72v-944h-151v914q0 66 -41 102t-117 36q-62 0 -106 -19t-66 -51q6 -10 11 -22t8.5 -26t5.5 -28t2 -28v-592h-232z" />
<glyph unicode="&#xe27;" horiz-adv-x="653" d="M43 572q0 44 7.5 84.5t22.5 76t37 65.5t52 51.5t68 33.5t84 12q43 0 81.5 -9.5t70.5 -31t58 -56.5t44 -85.5t28 -118.5t10 -156q0 -46 -5 -97t-17 -101t-33 -95.5t-53 -80.5t-76 -56q-44 -20 -104 -20q-62 0 -108 19t-78 53.5t-52 81t-29 100.5h160q4 -26 11.5 -48.5 t20 -40t31 -27.5t44.5 -10q39 0 64 26t39.5 70.5t19.5 103t5 122.5v55.5t-4 70t-12 72.5t-23 65t-38 47t-57 18q-37 0 -60.5 -18t-36.5 -46t-17 -63t-4 -67h-151z" />
<glyph unicode="&#xe28;" horiz-adv-x="780" d="M80 0v647q0 59 23 105t65 77t99 47.5t124 16.5q42 0 79.5 -5.5t69.5 -19.5q20 2 34 11t23 21.5t13 25.5t4 22h162q-1 -22 -7.5 -46.5t-20.5 -47t-37 -40.5t-55 -28q20 -30 32 -64t12 -75v-647h-149v618q0 32 -8.5 59.5t-27.5 47t-49.5 30.5t-74.5 11q-45 0 -76 -11 t-49 -30t-26 -46t-8 -61v-176q20 26 41 44t48 29t60 15t75 0v-141q-54 10 -96 2t-70.5 -31t-43 -59t-14.5 -82v-219h-152z" />
<glyph unicode="&#xe29;" horiz-adv-x="772" d="M80 226v658h152v-628q0 -32 11.5 -57.5t32 -43t49.5 -27t64 -9.5q34 0 62 9.5t48.5 27t31.5 43t11 57.5v150h-224v198h141v-74h83v354h152v-354h78v-124h-78v-178q0 -39 -12.5 -71.5t-34.5 -59t-51.5 -46t-63.5 -33t-70.5 -20t-72.5 -6.5t-73.5 6.5t-71.5 19.5t-64 32.5 t-52 45.5t-35 58t-13 72z" />
<glyph unicode="&#xe2a;" horiz-adv-x="766" d="M47 252q0 8 1 24t5.5 36.5t13.5 43t25.5 44.5t41 40t60.5 29l275 86q10 3 20.5 11t18.5 20t13 27t5 34q0 32 -11 54.5t-31.5 36.5t-49 21t-62.5 7q-36 0 -63 -11t-46.5 -30.5t-30.5 -47.5q-10 -29 -13 -63h-151q2 72 28 125t70 88t102.5 51.5t124.5 16.5q45 0 81 -7 q34 -8 64 -20q18 4 30.5 14t20 22t11.5 24t4 20h162q0 -23 -8 -47.5t-24 -46.5t-40 -40q-24 -20 -57 -30q12 -18 19 -36t11 -36t5.5 -34t1.5 -29v-649h-148v456q-9 -4 -18.5 -8t-22.5 -9t-31 -11t-43 -15t-60 -20t-81 -27q-20 -6 -33.5 -18t-22.5 -29t-13.5 -36t-4.5 -39 q0 -26 9.5 -48t27 -38t41.5 -24q26 -9 56 -9q11 0 30 5q20 4 46 12v-124q-23 -12 -49.5 -18t-47.5 -6q-68 0 -117.5 17t-81.5 50t-47.5 81t-15.5 110z" />
<glyph unicode="&#xe2b;" horiz-adv-x="780" d="M80 0v884h152v-308l321 308h189l-181 -172q40 -18 66.5 -45.5t41.5 -63t21 -77.5t6 -90v-436h-151v452q0 28 -5.5 53.5t-16 46.5t-27 37.5t-40.5 24.5l-224 -216v-398h-152z" />
<glyph unicode="&#xe2c;" horiz-adv-x="932" d="M51 884h154l57 -558l4 -80l14 82l99 405h141l94 -405l14 -90l11 88q9 75 15.5 128.5t11 91.5t7 61t4 37t1.5 21.5v12.5q0 20 -4 36t-14 28t-27.5 18t-44.5 6l-18 114q36 0 70 8.5t60 24t43 38.5t21 55h166q-4 -39 -18 -71.5t-33 -56.5t-43 -41t-50 -26q24 -20 35 -51.5 t11 -75.5q0 -17 -2 -34q-2 -18 -4 -32l-99 -618h-182l-99 444l-96 -444h-180z" />
<glyph unicode="&#xe2d;" horiz-adv-x="782" d="M72 473v59h311v-126h-153q2 -64 10 -118t26 -92.5t48 -60t75 -21.5q48 0 79.5 24t49.5 66.5t25.5 101t7.5 128.5q0 89 -9.5 151.5t-29.5 102.5t-50 58t-73 18q-55 0 -92 -37t-55 -117h-160q28 136 104.5 209.5t202.5 73.5q83 0 143 -28.5t99.5 -83t58 -132.5t18.5 -176 q0 -140 -22 -234t-63.5 -150.5t-101 -79.5t-132.5 -23q-72 0 -130.5 23.5t-100 80t-64 150.5t-22.5 233z" />
<glyph unicode="&#xe2e;" horiz-adv-x="786" d="M72 475v59h313v-128h-153q2 -64 10 -117t26 -91.5t47 -60t74 -21.5q48 0 79.5 24t49.5 66t25.5 101t7.5 129q0 90 -9.5 153.5t-28.5 103.5t-50 58.5t-74 18.5q-54 0 -89 -36t-52 -116h-162q14 66 39.5 118.5t63 88t87.5 54t113 18.5q81 -1 143 -31q18 3 31 12.5t22 21.5 t13 24t4 20h164q-1 -23 -9.5 -47.5t-24.5 -47t-41 -40t-60 -27.5q38 -54 58.5 -131t20.5 -176q0 -94 -10 -166.5t-29 -126.5t-47 -91t-64 -59t-79 -32t-92 -10q-48 0 -89.5 10t-77.5 32.5t-63.5 59.5t-47 90.5t-29.5 126.5t-10 166z" />
<glyph unicode="&#xe2f;" horiz-adv-x="753" d="M62 674q0 39 10 69.5t28.5 54t42 40t50 27t54 15t52.5 4.5h117v-122h-82q-13 0 -34 -3t-40.5 -12t-34 -27t-14.5 -48q0 -20 6.5 -40t21.5 -35t42 -24.5t67 -9.5q88 0 133 32.5t45 102.5v186h148v-884h-148v486q-34 -25 -78.5 -39.5t-97.5 -14.5q-72 0 -126 17t-90 49 t-54 77t-18 99z" />
<glyph unicode="&#xe30;" horiz-adv-x="475" d="M74 125v182h133v-65h213v-117h-346zM74 582v182h133v-66h213v-116h-346z" />
<glyph unicode="&#xe31;" d="M-465 1004v192h129v-68h381v-124h-510z" />
<glyph unicode="&#xe32;" horiz-adv-x="626" d="M14 637q0 64 23 112.5t61 80.5t86 48.5t98 16.5q48 0 96 -15t86 -44.5t61.5 -74.5t23.5 -103v-658h-151v633q0 32 -8.5 57.5t-23.5 42.5t-36.5 26t-47.5 9q-24 0 -44.5 -9t-37 -26t-26.5 -41t-12 -55h-148z" />
<glyph unicode="&#xe33;" horiz-adv-x="626" d="M-309 1143q0 32 11.5 59t31.5 47.5t47 31.5t57 11q32 0 59 -11t47 -31.5t32 -48t12 -58.5t-12 -58t-32 -47t-47 -31t-59 -11q-30 0 -57 11t-47 31t-31.5 47t-11.5 58zM-215 1143q0 -11 4.5 -21t11.5 -17t17 -11t20 -4q12 0 22 4t17.5 11t12 17t4.5 21q0 12 -4.5 21.5 t-12 17.5t-17.5 12t-22 4q-10 0 -20 -4t-17 -12t-11.5 -17.5t-4.5 -21.5zM14 637q0 64 23 112.5t61 80.5t86 48.5t98 16.5q48 0 96 -15t86 -44.5t61.5 -74.5t23.5 -103v-658h-151v633q0 32 -8.5 57.5t-23.5 42.5t-36.5 26t-47.5 9q-24 0 -44.5 -9t-37 -26t-26.5 -41t-12 -55 h-148z" />
<glyph unicode="&#xe34;" d="M-698 1002l63 126h555v-126h-618z" />
<glyph unicode="&#xe35;" d="M-698 1002l63 126h422v134h133v-260h-618z" />
<glyph unicode="&#xe36;" d="M-698 1002l63 126h315q-2 2 -2 4v4q0 28 11 53t29.5 43t43 29t52.5 11t52 -11t43 -29t29.5 -43t10.5 -53t-10.5 -52t-29.5 -42.5t-43 -29.5q-24 -10 -52 -10h-512zM-232 1134q0 -18 14 -31t32 -13t31 13t13 31t-13 32t-31 14t-32 -14t-14 -32z" />
<glyph unicode="&#xe37;" d="M-698 1002l63 126h235v134h128v-134h65v134h127v-260h-618z" />
<glyph unicode="&#xe38;" d="M-284 -133h204v-336h-139v213h-65v123z" />
<glyph unicode="&#xe39;" d="M-542 -133h204v-147q0 -36 15 -54t45 -18t44.5 18t14.5 54v147h139v-147q-1 -38 -11.5 -73t-34 -61t-61 -41.5t-91.5 -15.5t-92 15.5t-61.5 41.5t-34.5 60q-10 36 -11 74v26h-65v121z" />
<glyph unicode="&#xe3a;" d="M-258 -219q0 20 7.5 38.5t20 32t30 21.5t36.5 8q21 0 39.5 -8t31.5 -21.5t21 -31.5t8 -39q0 -20 -8 -36.5t-21 -29.5t-31.5 -21t-39.5 -8q-19 0 -36.5 8t-30 21t-20 29.5t-7.5 36.5z" />
<glyph unicode="&#xe3e;" />
<glyph unicode="&#xe3f;" horiz-adv-x="835" d="M94 0v1044h258v92h102v-92q70 -2 122.5 -22.5t87.5 -55.5t52.5 -83t18.5 -105q1 -40 -4.5 -73.5t-19.5 -61t-37.5 -49.5t-59.5 -39q40 -13 69 -36t46 -54.5t25 -69t8 -79.5q2 -152 -75 -232.5t-233 -83.5v-162h-102v162h-258zM248 131h104v344h-104v-344zM248 610h104 v302h-104v-302zM454 131q36 4 64.5 15.5t48 33t28.5 52.5t9 73q-1 50 -13 82t-32.5 50.5t-47.5 26.5t-57 11v-344zM454 612q26 4 48 15t38 29t24 45t8 65q0 126 -118 142v-296z" />
<glyph unicode="&#xe40;" horiz-adv-x="309" d="M80 0v884h150v-884h-150z" />
<glyph unicode="&#xe41;" horiz-adv-x="559" d="M80 0v884h150v-884h-150zM330 0v884h149v-884h-149z" />
<glyph unicode="&#xe42;" horiz-adv-x="372" d="M-14 1149l30 121h402l64 -123h-271q24 -24 38.5 -57.5t14.5 -73.5v-885h88v-131h-240v1002q0 33 -9.5 60t-26.5 46.5t-40.5 30t-49.5 10.5z" />
<glyph unicode="&#xe43;" horiz-adv-x="372" d="M-58 1059q0 62 20 107t52.5 75t75 44.5t88.5 14.5q42 0 80 -10t67 -30t46.5 -51t17.5 -73q0 -27 -5 -45.5t-15.5 -34.5t-26.5 -32l-39 -39q-14 -14 -21.5 -27.5t-11.5 -28.5t-5 -34t-1 -43v-721h90v-131h-240v862q0 34 5 62.5t15 52t25 43t35 37.5q10 8 21 18.5t19.5 20 t14 19t5.5 15.5q0 10 -6 19t-16 15t-24 9t-30 3q-17 0 -33 -5t-28.5 -18t-21.5 -36t-11 -58h-142z" />
<glyph unicode="&#xe44;" horiz-adv-x="372" d="M-108 1147l63 123h401l31 -121q-27 0 -50 -10.5t-40 -30t-27 -47t-10 -59.5v-871h90v-131h-242v1016q0 40 14.5 74t39.5 57h-270z" />
<glyph unicode="&#xe45;" horiz-adv-x="626" d="M14 637q0 64 23 112.5t61 80.5t86 48.5t98 16.5q48 0 96 -15t86 -44.5t61.5 -74.5t23.5 -103v-944h-151v919q0 32 -8.5 57.5t-23.5 42.5t-36.5 26t-47.5 9q-24 0 -44.5 -9t-37 -26t-26.5 -41t-12 -55h-148z" />
<glyph unicode="&#xe46;" horiz-adv-x="702" d="M41 616q-4 53 4.5 100.5t33.5 85t70 63t113 34.5l72 -71l66 71q51 -4 87.5 -17.5t61.5 -34.5t40 -47.5t23 -57t10 -64.5t2 -68v-894h-149v908q0 17 -1.5 36.5t-5.5 37.5t-12 33t-20 23l-72 -72q-14 -12 -28.5 -12t-28.5 12l-73 74q-16 -8 -24.5 -20.5t-13 -28t-5.5 -35 t-1 -39.5q0 -12 3 -25.5t11 -24.5t20.5 -18.5t31.5 -7.5h35v-133h-35q-44 0 -81 11t-65.5 34.5t-46 60t-22.5 86.5z" />
<glyph unicode="&#xe47;" d="M-666 1190q0 57 18 94.5t46 60.5t61 32t64 9h403v-110h-397q-20 0 -33 -7t-20.5 -19t-10.5 -27t-3 -31t1 -30t6.5 -25t15 -18t25.5 -7t26 8.5t15 23t7 34.5t2 42h108q0 -22 2 -42t7 -34.5t15 -23t26 -8.5q17 0 26.5 9t14.5 24t5 35q0 18 -2 40h122q4 -66 -7 -109t-33 -68 t-52 -35q-30 -8 -62 -6q-22 2 -40 8t-32 15t-24.5 21t-16.5 25q-7 -12 -19 -24.5t-28 -22.5t-34.5 -16t-39.5 -6q-42 0 -72.5 15t-50 40.5t-29.5 60t-10 72.5z" />
<glyph unicode="&#xe48;" d="M-209 1344v225h129v-225h-129z" />
<glyph unicode="&#xe49;" d="M-463 1474v103h187v-127q72 2 106.5 36t34.5 91h127q0 -46 -19 -87.5t-55 -73.5t-88 -52q-53 -18 -119 -20h-100v130h-74z" />
<glyph unicode="&#xe4a;" d="M-512 1344q0 57 10 94.5t27 60.5t40.5 33t49.5 10q34 0 54.5 -16.5t33.5 -42.5q11 26 36 42.5t63 16.5q20 0 38 -5t32.5 -16t24.5 -29.5t13 -45.5q17 14 28 44t11 68h113q0 -36 -11 -71t-30.5 -64.5t-47 -51t-61.5 -27.5h-96q0 10 -1 26t-4.5 31t-9.5 26t-16 11t-17 -10 t-11.5 -24t-6.5 -30t-2 -30h-88q0 14 -2 30t-6 30t-10.5 24t-16.5 10t-16.5 -11t-9.5 -26t-4 -31t-1 -26h-106z" />
<glyph unicode="&#xe4b;" d="M-320 1446v102h126v109h114v-109h125v-102h-125v-115h-114v115h-126z" />
<glyph unicode="&#xe4c;" d="M-211 1241q0 44 18.5 86.5t55.5 76t89 54.5q54 20 122 20v-106q-40 0 -69 -10t-48 -27t-28 -41t-9 -53h-131z" />
<glyph unicode="&#xe4d;" d="M-309 1143q0 32 11.5 59t31.5 47.5t47 31.5t57 11q32 0 59 -11t47 -31.5t32 -48t12 -58.5t-12 -58t-32 -47t-47 -31t-59 -11q-30 0 -57 11t-47 31t-31.5 47t-11.5 58zM-215 1143q0 -11 4.5 -21t11.5 -17t17 -11t20 -4q12 0 22 4t17.5 11t12 17t4.5 21q0 12 -4.5 21.5 t-12 17.5t-17.5 12t-22 4q-10 0 -20 -4t-17 -12t-11.5 -17.5t-4.5 -21.5z" />
<glyph unicode="&#xe4e;" d="M-354 1024q0 35 9 71t28.5 66.5t50 52.5t74.5 31q7 32 26.5 57.5t51.5 44.5t76 29t98 12v-110q-72 0 -105 -24t-33 -78v-25h-28q-33 0 -55.5 -9.5t-35.5 -26.5t-18.5 -40t-5.5 -51h-133z" />
<glyph unicode="&#xe4f;" horiz-adv-x="1016" d="M60 440q0 62 15.5 119t44.5 107t69.5 91t90.5 69.5t107 44.5t119 16t119 -16t107 -44.5t90.5 -69.5t69 -91t44.5 -107t16 -119t-16 -119t-44.5 -106.5t-69 -90t-90.5 -69.5t-107 -45t-119 -16t-119 16t-107 45t-90.5 69.5t-69.5 90t-44.5 106.5t-15.5 119zM184 442 q0 -44 12 -85t33 -76.5t50 -65t65 -50.5t77 -32.5t85 -11.5t85 11.5t77 32.5t65 50.5t50 65t33 76.5t12 85q0 66 -26 125t-69.5 102.5t-102 69t-124.5 25.5q-44 0 -85 -11.5t-77 -33t-65 -50.5t-50 -65t-33 -77t-12 -85zM268 442q0 49 19 92.5t51 75.5t75.5 51t92.5 19 t92.5 -19t75.5 -51t51 -75t19 -93q0 -49 -19 -92t-51 -75.5t-75.5 -51t-92.5 -18.5t-92.5 18.5t-75.5 51t-51 75.5t-19 92zM379 442q0 -26 10 -49t27.5 -40t40.5 -27t49 -10t49 10t40.5 27t27.5 40t10 49t-10 49.5t-27.5 41t-40.5 27.5t-49 10t-49 -10t-40.5 -27.5 t-27.5 -41t-10 -49.5z" />
<glyph unicode="&#xe50;" horiz-adv-x="895" d="M60 396q0 96 30 167.5t82 119t122 71.5t152 24t153 -24t123 -71.5t82 -119t30 -167.5q0 -106 -30 -184t-82.5 -128t-123 -74t-152.5 -24t-152 24t-122 75t-82 128t-30 183zM209 391q0 -67 16.5 -119t47 -87t74.5 -54q43 -19 99 -19t100 19t75 54t47 87t16 119 q0 70 -18.5 120t-50.5 81t-75.5 45.5t-93.5 14.5q-49 0 -92 -15t-75.5 -46t-51 -80.5t-18.5 -119.5z" />
<glyph unicode="&#xe51;" horiz-adv-x="887" d="M8 123l113 98q20 -32 49.5 -53.5t64 -35.5t73 -20t77.5 -6q63 0 114 22t86.5 62t55 96t19.5 126q0 54 -12 99.5t-38 78.5t-68 51.5t-104 18.5q-50 0 -89 -13t-66 -35t-41 -49.5t-14 -56.5q0 -27 9 -53.5t32 -46.5t63.5 -29t103.5 0v-109q-26 -6 -50 -8t-48 -2 q-58 0 -108 17.5t-87 49t-58 74.5t-21 95q0 50 14 91t40 72.5t61 55t76 38.5t87 22t92 7q83 0 155 -20.5t125 -65t84 -114.5q30 -68 30 -166q0 -61 -14 -116.5t-39.5 -102.5t-63 -85.5t-86.5 -65.5t-108.5 -41.5t-127.5 -14.5q-48 0 -97.5 5t-98.5 19t-96 41t-89 70z" />
<glyph unicode="&#xe52;" horiz-adv-x="1018" d="M0 754l24 130q44 0 81.5 -13t64 -40.5t41.5 -69.5q15 -41 15 -99v-336q0 -43 18 -80.5t56 -65.5t96 -44q56 -15 134 -15q74 0 125 14.5t83 39.5t46 56.5t14 65.5v235q0 48 -20.5 75t-54.5 34q-13 -10 -27.5 -22.5l-29 -25t-28.5 -24.5t-26 -22l-108 90q-13 0 -25 -6.5 t-21 -18.5t-14 -30q-6 -20 -6 -44v-77q0 -24 2 -46.5t8.5 -40.5t19 -29t34.5 -11h59v-119h-73q-47 0 -80.5 12.5t-56 32.5t-35.5 45.5t-19.5 52t-8.5 52.5q-4 26 -4 46v70q0 48 17 91.5t48 77t76 55.5t101 28l86 -72l78 72q57 -3 104.5 -21t82.5 -48t54 -70.5t19 -89.5v-225 q0 -88 -29.5 -151t-80.5 -104t-118.5 -60t-143.5 -19h-80q-103 0 -182.5 25t-133 71t-81 110t-27.5 142v299q0 63 -18 90t-56 27z" />
<glyph unicode="&#xe53;" horiz-adv-x="909" d="M68 338v80q0 88 18 153t53.5 108t89 67t123.5 32l104 -90l109 90q72 -6 124.5 -30t86.5 -63t51 -88t17 -103v-494h-152v494q0 33 -8 58t-22 42.5t-33 27.5t-39 11q-16 -12 -33 -25.5t-34.5 -27.5t-34.5 -28q-18 -14 -32 -26l-128 107q-18 -1 -38 -10t-36 -32t-26.5 -63.5 t-10.5 -103.5v-84q0 -22 0.5 -46.5t3.5 -48t8.5 -45.5t16.5 -39t28 -27q18 -9 42 -9q16 0 43 2.5t63 9.5v-131q-11 -3 -30.5 -5.5t-41 -4.5t-43 -3t-37.5 1q-51 6 -85.5 25.5t-57.5 47t-35 62.5t-17.5 71t-6 71.5t-0.5 66.5z" />
<glyph unicode="&#xe54;" horiz-adv-x="880" d="M60 328v104q0 86 28 148.5t80 104t125 61.5t163 20h130q32 0 51.5 9t31 24.5t15.5 37t4 47.5h158q0 -28 -4 -58t-15 -58t-29 -52.5t-46 -43t-68 -29t-92 -10.5h-150q-53 0 -95.5 -12t-72.5 -35t-46 -56q-17 -34 -17 -76v-122q0 -43 12.5 -80.5t37.5 -64.5t65 -42.5 t94 -15.5h30q-14 10 -27 23.5t-23 30t-16.5 37t-6.5 44.5q0 12 1.5 29.5t9.5 37t23 38.5t41 34.5t66 25t96 9.5v-126q-33 0 -51 -7t-26.5 -16.5t-10.5 -20t-2 -18.5q0 -26 11 -48t27.5 -38.5t35.5 -25.5t35 -9h213v-129h-444q-68 0 -120 14t-90 39t-63 57t-41 69t-22 75 t-6 74z" />
<glyph unicode="&#xe55;" horiz-adv-x="880" d="M60 326v106q0 64 17 117t49.5 94t80.5 69q49 28 111 40q-6 18 -6 34q0 30 11.5 57.5t32 47.5t47.5 31.5t58 11.5q32 0 59.5 -11.5t48.5 -31.5t32 -47q11 -28 11 -58v-10t-2 -10q23 3 38.5 13t24 25.5t12 35.5t3.5 44h158q0 -29 -4 -59t-15 -58t-29 -52.5t-46 -43.5 t-68 -29.5t-92 -10.5h-150q-53 0 -95.5 -11.5t-72.5 -34.5t-46.5 -56t-16.5 -77v-120q0 -43 12.5 -80.5t37.5 -64.5t65 -42.5t94 -15.5h30q-14 10 -27 23.5t-23 30t-16.5 37t-6.5 44.5q0 12 1.5 29.5t9.5 37t23 38.5t41 34.5t66 25t96 9.5v-126q-33 0 -51 -7t-26.5 -16.5 t-10.5 -20t-2 -18.5q0 -26 11 -48t27.5 -38.5t35.5 -25.5t35 -9h213v-129h-444q-68 0 -120 14t-90 38.5t-63 57t-41 68.5t-22 74t-6 74zM416 786q0 -20 13 -33t32 -13q22 0 35.5 13t13.5 33q0 22 -14 36t-35 14q-19 0 -32 -14t-13 -36z" />
<glyph unicode="&#xe56;" horiz-adv-x="921" d="M26 776l124 72l82 -140q18 10 44 22t59.5 22t74 17t86.5 9q74 2 130 -11.5t98 -39t69 -60.5t44 -76t23 -86t6 -89v-70q0 -48 -10 -93.5t-31 -86t-53.5 -73.5t-76 -56t-99.5 -35t-123 -10q-74 2 -134.5 21t-103.5 52t-66 79t-23 100q0 53 17.5 91t50 62.5t78.5 36.5 q46 10 104 10h60v-120h-54q-31 0 -51.5 -6t-32.5 -17t-16.5 -27t-4.5 -36q0 -24 12.5 -45t36.5 -36t58 -24t78 -10q48 -1 90 14t74 44t50.5 70t18.5 93v68q0 57 -14.5 100.5t-41.5 74t-66 46t-89 14.5q-46 -1 -86 -9t-78 -23t-76 -37q-38 -24 -80 -54z" />
<glyph unicode="&#xe57;" horiz-adv-x="1073" d="M82 332v84q0 84 18.5 147t55 107.5t89.5 70t121 33.5l82 -80l82 80q82 -8 135 -36t83.5 -73.5t42.5 -107.5t12 -137v-80q-1 -20 -2 -38.5t-4 -37t-8 -38.5t-13 -42q23 24 38.5 52t24.5 56.5t13 58t4 57.5v256q0 58 15 100t41 69t63 40.5t82 13.5l23 -131q-38 0 -55 -27 t-17 -90v-213q0 -46 -9 -93t-27 -91t-45 -84t-64 -73t-82.5 -57t-100.5 -36l-115 88q32 32 49.5 62t25.5 61t10 64t2 69v84q0 52 -7.5 89.5t-21 63t-31.5 40t-39 18.5l-107 -105l-104 102q-18 -4 -37.5 -17t-35 -38.5t-25.5 -63.5t-10 -91v-78v-40t3.5 -45t10 -45 t17.5 -39.5t28.5 -28t42.5 -11.5q6 0 16 0.5t21 2.5l22 4t21 6l2 -132q-86 -26 -149 -12t-104 58t-61 115t-22 159z" />
<glyph unicode="&#xe58;" horiz-adv-x="913" d="M76 278v168q0 78 23 138t69 100t114 61t160 21h172q32 0 52 9t31 24.5t15.5 37t4.5 47.5h157q0 -28 -4 -58t-14.5 -58.5t-29 -54t-46.5 -44.5t-67 -30t-91 -11h-194q-53 0 -91 -13t-62.5 -36.5t-35.5 -55t-11 -69.5v-176q0 -30 9 -55t24 -44t34 -31t39 -13l127 99 l135 -99q22 0 39 7.5t29.5 23t19 42t6.5 64.5q0 16 -3 34t-11 33.5t-24 25.5t-40 10h-38v121h46q48 0 83 -10t59 -27t39 -39t24 -47t12 -51t3 -52q0 -68 -15 -120t-47 -87t-83 -53t-123 -18l-111 86l-103 -86q-72 5 -124.5 29.5t-88 63.5t-52.5 89q-17 48 -17 104z" />
<glyph unicode="&#xe59;" horiz-adv-x="938" d="M78 332v74q0 89 11 157.5t39.5 116t78 72t127.5 24.5q24 0 47 -2t45 -8t42 -18t38 -33q8 19 20.5 29.5t28.5 15t34.5 5.5t38.5 1h64q30 0 49 9t30 24.5t14 37t3 47.5h154q0 -28 -3 -58t-12.5 -58t-26 -52.5t-44 -43t-66 -29t-92.5 -10.5h-26q-18 0 -30.5 -4.5t-20 -15.5 t-10.5 -29t-3 -46l211 -538h-157l-208 532q-10 26 -21.5 46t-26 35t-33 22.5t-41.5 7.5q-26 0 -45 -11.5t-32 -38.5t-19 -72t-6 -109v-90v-42.5t3 -44t8 -41.5t15.5 -35t27 -23.5t42.5 -8.5q20 1 65 13l19 -132q-10 -3 -26.5 -5.5t-34.5 -4.5t-36.5 -3t-36.5 1q-50 6 -84 24 t-56 44t-34 58.5t-17 68t-6 71.5t-1 70z" />
<glyph unicode="&#xe5a;" horiz-adv-x="1005" d="M62 674q0 39 10 69.5t28.5 54t42 40t50 27t54 15t52.5 4.5h117v-122h-82q-13 0 -34 -3t-40.5 -12t-34 -27t-14.5 -48q0 -20 6.5 -40t21.5 -35t42 -24.5t67 -9.5q88 0 133 32.5t45 102.5v186h148v-884h-148v486q-34 -25 -78.5 -39.5t-97.5 -14.5q-72 0 -126 17t-90 49 t-54 77t-18 99zM778 0v884h148v-884h-148z" />
<glyph unicode="&#xe5b;" horiz-adv-x="1853" d="M78 448q0 50 11 100t32 96.5t53 86.5t73 69.5t91 46.5t110 17q84 0 145 -28t99 -75t56 -106t18 -121l-140 -2q0 89 -42 137.5t-117 53.5q-56 0 -99.5 -22t-74 -59.5t-46 -87.5t-15.5 -108q0 -54 20 -105t56 -90t88 -62t116 -23q61 0 108.5 19t84.5 52t62 79t41.5 100.5 t24 115t7.5 124.5l106 56q22 -23 44 -49.5t41 -53.5t36 -53t29 -48q24 37 56 85.5t75 100.5q18 -26 34.5 -52t32.5 -50.5t29 -46.5t23 -39q9 14 19.5 29t21.5 28.5t19 24.5q10 10 14 16h276l94 -145h-326q-32 -38 -62 -90.5t-58 -108.5q-16 29 -32 59.5t-31.5 58.5t-29 52 t-24.5 41q-14 -19 -30.5 -44t-33.5 -58t-35 -73t-34 -89q-31 86 -64.5 154.5t-65.5 113.5q-5 -66 -24 -125t-50 -109.5t-72.5 -91.5t-91.5 -70t-107 -45t-119 -16q-70 0 -129 16t-106 45t-82 69t-58 88t-35 102t-12 110z" />
<glyph unicode="&#x2000;" horiz-adv-x="828" />
<glyph unicode="&#x2001;" horiz-adv-x="1657" />
<glyph unicode="&#x2002;" horiz-adv-x="828" />
<glyph unicode="&#x2003;" horiz-adv-x="1657" />
<glyph unicode="&#x2004;" horiz-adv-x="552" />
<glyph unicode="&#x2005;" horiz-adv-x="414" />
<glyph unicode="&#x2006;" horiz-adv-x="276" />
<glyph unicode="&#x2007;" horiz-adv-x="276" />
<glyph unicode="&#x2008;" horiz-adv-x="207" />
<glyph unicode="&#x2009;" horiz-adv-x="331" />
<glyph unicode="&#x200a;" horiz-adv-x="92" />
<glyph unicode="&#x200b;" />
<glyph unicode="&#x2010;" horiz-adv-x="508" d="M53 293v121h401v-121h-401z" />
<glyph unicode="&#x2011;" horiz-adv-x="508" d="M53 293v121h401v-121h-401z" />
<glyph unicode="&#x2012;" horiz-adv-x="508" d="M53 293v121h401v-121h-401z" />
<glyph unicode="&#x2013;" horiz-adv-x="731" d="M0 366v132h731v-132h-731z" />
<glyph unicode="&#x2014;" horiz-adv-x="1466" d="M0 366v132h1466v-132h-1466z" />
<glyph unicode="&#x2018;" horiz-adv-x="325" d="M80 710v150q0 36 7.5 71t26 65t50.5 53t82 37v-92q-22 -4 -36 -16.5t-22.5 -29t-11.5 -34.5q-4 -20 -4 -38h68v-166h-160z" />
<glyph unicode="&#x2019;" horiz-adv-x="325" d="M80 684v92q22 4 36 16.5t22 29t12 35.5t4 36h-68v166h160v-149q0 -36 -7.5 -71t-26 -65t-51 -53.5t-81.5 -36.5z" />
<glyph unicode="&#x201c;" horiz-adv-x="573" d="M80 710v150q0 36 7.5 71t26 65t50.5 53t82 37v-92q-22 -4 -36 -16.5t-22.5 -29t-11.5 -34.5q-4 -20 -4 -38h68v-166h-160zM328 710v150q0 36 7 71t26 65t51 53t82 37v-92q-22 -4 -36 -16.5t-22.5 -29t-11.5 -34.5q-4 -20 -4 -38h68v-166h-160z" />
<glyph unicode="&#x201d;" horiz-adv-x="573" d="M80 684v92q22 4 36 16t22 28.5t12 35t4 37.5h-68v166h160v-149q0 -36 -7.5 -71t-26 -65t-51 -53.5t-81.5 -36.5zM328 684v92q22 4 36 16t22 28.5t12 35t4 37.5h-68v166h160v-149q0 -36 -8 -71t-26.5 -65t-50.5 -54q-31 -23 -81 -36z" />
<glyph unicode="&#x2022;" horiz-adv-x="567" d="M49 408q0 44 18.5 84t50.5 70.5t74 47.5q42 18 90 18t91 -17.5t75 -48t51 -70.5t19 -84q0 -46 -19 -87t-51 -72t-75 -49t-91 -18t-90 18t-74 49t-50.5 72t-18.5 87z" />
<glyph unicode="&#x202f;" horiz-adv-x="331" />
<glyph unicode="&#x205f;" horiz-adv-x="414" />
<glyph unicode="&#x20ac;" horiz-adv-x="880" d="M14 393v105h111v36v50h-111v104h119q6 48 17 95t29.5 88.5t46.5 77t66 61.5t88 40q52 15 116 15q82 0 144.5 -26.5t104.5 -73.5t62.5 -111t18.5 -139h-154q-1 45 -10.5 85t-31 69t-57 46t-87.5 17q-32 0 -57.5 -10t-45 -27t-34.5 -40t-26 -50.5t-18 -57t-12 -59.5h231 v-104h-240v-48v-38h240v-105h-235q3 -34 9 -67.5t16 -63.5t24 -56.5t35 -45.5t49 -30t64 -11q58 0 94.5 23t57 62t28.5 90q8 52 6 108h154q2 -56 -5 -109t-23 -99t-42 -85t-63.5 -67t-86.5 -43q-48 -15 -110 -15q-72 0 -127 15.5t-95 44t-66.5 66.5t-43 84t-25.5 96.5 t-12 102.5h-113z" />
<glyph unicode="&#x2122;" horiz-adv-x="1190" d="M41 932v112h441v-112h-162v-504h-117v504h-162zM538 428v616h156l144 -407l141 407h153v-616h-110l-2 428l-152 -428h-70l-149 426v-426h-111z" />
<glyph unicode="&#x25cc;" horiz-adv-x="983" d="M240 420l65 32q-2 -16 -2 -34q0 -17 2 -31zM309 242l25 67q19 -27 45 -47zM322 600l65 -24q-31 -18 -49 -44zM456 604l36 66l30 -64q-14 2 -28 2q-20 0 -38 -4zM461 230q17 -4 33 -4q14 0 26 4l-28 -62zM600 576l74 24l-27 -70q-19 28 -47 46zM602 260q25 17 43 41 l19 -59zM682 391q2 10 2 27q0 16 -2 32l62 -32z" />
<glyph unicode="&#x25fc;" horiz-adv-x="775" d="M0 0v775h775v-775h-775z" />
<glyph unicode="&#xf700;" horiz-adv-x="674" d="M56 612q0 62 18.5 114t55.5 90t92 58.5t128 20.5q30 0 60 -4.5t59 -16.5q14 6 24.5 15t16.5 20t9 21t3 18h162q-1 -22 -7.5 -45t-19.5 -44t-33 -39t-48 -30q26 -37 40 -90.5t8 -127.5q-2 -28 -6 -57t-12 -62t-20 -75t-29 -96t-40.5 -123t-53.5 -159h-183l-124 416h-94 v116h208l105 -356q16 53 28.5 94.5t22 75.5t16.5 61t12.5 51.5t8.5 48t6 48.5q4 42 -0.5 79.5t-19.5 67t-40 47t-61 17.5q-64 0 -98 -36t-37 -118h-157z" />
<glyph unicode="&#xf701;" d="M-809 1002l63 126h434v-126h-497z" />
<glyph unicode="&#xf702;" d="M-809 1002l63 126h302v124h132v-250h-497z" />
<glyph unicode="&#xf703;" d="M-809 1002l63 126h178q-2 2 -2 4v4q0 28 11 53t29.5 43t43 29t52.5 11t52 -11t43 -29t29.5 -43t10.5 -53t-10.5 -52t-29.5 -42.5t-43 -29t-52 -10.5h-375zM-479 1134q0 -18 13 -31t32 -13q18 0 31.5 13t13.5 31t-13.5 32t-31.5 14q-19 0 -32 -14t-13 -32z" />
<glyph unicode="&#xf704;" d="M-809 1002l63 126h115v124h127v-124h66v124h126v-250h-497z" />
<glyph unicode="&#xf705;" d="M-467 1002v239h137v-239h-137z" />
<glyph unicode="&#xf706;" d="M-656 1110v104h168v-122q60 4 94 37t34 85h114q0 -46 -17 -87t-49.5 -72.5t-80 -50t-109.5 -19.5h-92v125h-62z" />
<glyph unicode="&#xf707;" d="M-746 994q0 58 9.5 96t25 62t35.5 34t41 10q14 0 25.5 -4.5t21.5 -12t17 -17.5t12 -22q10 26 31.5 41t52.5 15q16 0 31.5 -5t28.5 -16t22.5 -29.5t13.5 -45.5q12 17 21 47q10 29 10 65h100q0 -36 -9 -72t-26 -66.5t-41 -52t-53 -27.5h-88q0 10 -0.5 25t-3.5 30t-7 26 q-6 11 -14 11q-7 0 -11.5 -9.5t-8 -23t-4.5 -29.5q-2 -16 -2 -30h-80q0 14 -1 30t-4 29.5t-8 23t-13 9.5t-14 -11t-8.5 -26t-3.5 -30t-1 -25h-97z" />
<glyph unicode="&#xf708;" d="M-635 1108v102h119v98h120v-98h120v-102h-120v-106h-120v106h-119z" />
<glyph unicode="&#xf709;" d="M-590 1002q0 50 18 95t56 79t96 54t138 22v-114q-43 0 -74.5 -9t-51.5 -27t-29 -44q-9 -24 -9 -56h-144z" />
<glyph unicode="&#xf70a;" d="M-226 1002v239h144v-239h-144z" />
<glyph unicode="&#xf70b;" d="M-475 1130v107h201v-127q32 2 56 12t41 27t25 39t8 49h138q0 -46 -17 -88.5t-52 -75t-88.5 -52t-125.5 -19.5h-115v128h-71z" />
<glyph unicode="&#xf70c;" d="M-645 1000q0 69 11.5 115.5t30.5 74.5t45 40.5t54 12.5q18 0 34 -5.5t28 -14.5t21 -22t15 -27q7 16 16.5 28t22.5 21.5t30 14.5t40 5q22 0 40.5 -8.5t33.5 -24.5t25 -37t14 -47q19 17 31.5 52.5t12.5 81.5h122q0 -40 -11 -83t-32 -79.5t-51 -63t-68 -34.5h-106 q0 8 -0.5 19.5t-1.5 24.5t-3 26t-5.5 23.5t-7.5 16.5q-6 6 -12 6q-12 0 -20 -12t-13 -29.5t-7 -38t-2 -36.5h-94q0 17 -2 37t-7 37.5t-13 29.5t-20 12q-8 0 -13 -6t-9 -16.5t-6 -23.5t-3 -26t-1 -24.5v-19.5h-119z" />
<glyph unicode="&#xf70d;" d="M-344 1118v111h127v107h131v-107h127v-111h-127v-114h-131v114h-127z" />
<glyph unicode="&#xf70e;" d="M-336 1002q0 52 19 98t58 81t99 56t142 23v-117q-44 0 -76.5 -10t-53 -28.5t-30.5 -44.5t-10 -58h-148z" />
<glyph unicode="&#xf70f;" horiz-adv-x="1192" d="M37 682q27 54 64.5 94.5t83 67t96.5 39t106 12.5q62 0 117.5 -15.5t98.5 -46.5t68 -75t25 -100v-400q0 -30 7.5 -55t21.5 -43t35 -27.5t49 -9.5h39q28 0 49.5 9.5t36 27.5t21.5 43t7 55v626h150v-661q0 -60 -23.5 -103.5t-61.5 -71.5t-86 -41t-97 -13h-35q-48 0 -95.5 14 t-85 42t-60.5 71t-23 102v405q0 32 -11.5 58t-32.5 44t-50 27t-64 9q-28 0 -54.5 -5t-49 -14t-41 -22t-29.5 -29q6 -10 11.5 -22t9 -26t6 -28t2.5 -28v-467h92v-125h-244v598q0 14 -2.5 27.5t-8.5 24.5t-16.5 19.5t-25.5 12.5z" />
<glyph unicode="&#xf710;" d="M-565 1004v190h129v-68h516v-122h-645z" />
<glyph unicode="&#xf711;" d="M-590 1145q0 32 11.5 59t31.5 47.5t46.5 31.5t58.5 11t59 -11t47 -31.5t31.5 -48t11.5 -58.5t-11.5 -58t-31.5 -47t-48 -31q-26 -11 -58 -11q-31 0 -58 11t-47 31t-31.5 47t-11.5 58zM-496 1145q0 -11 4.5 -21t12 -17t17.5 -11t20 -4q12 0 22 4t17 11t11.5 17t4.5 21 q0 12 -4.5 21.5t-11.5 17.5t-17 12t-22 4q-10 0 -20 -4t-17.5 -12t-12 -17.5t-4.5 -21.5z" />
<glyph unicode="&#xf712;" d="M-782 1190q0 57 16 94.5t42 60.5t57 32t61 9h374v-110h-370q-18 0 -30 -7t-19 -19t-10 -27t-3 -31t2 -30t6.5 -25t13.5 -18q10 -7 24 -7q16 0 24.5 8.5t13 23t5.5 34.5t1 42h103q0 -22 1.5 -42t6.5 -34.5t14 -23t23 -8.5q16 0 25 9t14 24t5 35q0 18 -1 40h111 q4 -66 -6 -109t-30 -68t-48 -35q-28 -8 -58 -6q-20 2 -37 8t-30 15t-23 21t-16 25q-6 -12 -17 -24.5t-25.5 -22.5t-32 -16t-36.5 -6q-40 0 -68.5 15t-47 40.5t-27 60t-8.5 72.5z" />
<glyph unicode="&#xf713;" d="M-440 1344v225h128v-225h-128z" />
<glyph unicode="&#xf714;" d="M-626 1474v103h186v-127q72 2 106.5 36t34.5 91h127q0 -46 -19 -87.5t-55 -73.5t-88 -52q-52 -18 -118 -20h-101v130h-73z" />
<glyph unicode="&#xf715;" d="M-696 1344q0 57 10 94.5t27 60.5t40 33t49 10q34 0 55 -16.5t33 -42.5q11 26 36.5 42.5t62.5 16.5q20 0 38.5 -5t33 -16t24 -29.5t13.5 -45.5q17 14 27.5 44t10.5 68h113q0 -36 -10.5 -71t-30.5 -64.5t-48 -50.5q-26 -22 -60 -28h-96q0 10 -1 26t-4.5 31t-10 26t-16.5 11 t-17 -10t-11 -24t-6 -30t-2 -30h-88q0 14 -2 30t-6 30t-10.5 24t-16.5 10q-11 0 -17 -11t-9 -26t-4 -31t-1 -26h-106z" />
<glyph unicode="&#xf716;" d="M-565 1446v102h125v109h114v-109h126v-102h-126v-115h-114v115h-125z" />
<glyph unicode="&#xf717;" d="M-440 1241q0 44 18.5 86.5t55 76t89.5 54t121 20.5v-106q-40 0 -69 -10t-47.5 -27t-27.5 -41t-9 -53h-131z" />
<glyph unicode="&#xf718;" d="M-284 -366h204v-320h-139v196h-65v124z" />
<glyph unicode="&#xf719;" d="M-542 -366h204v-148q0 -72 60 -72t59 72v148h139v-148q-1 -38 -11.5 -73t-34 -61t-61 -41t-91.5 -15t-92 15t-61.5 41t-34 61t-11.5 73v26h-65v122z" />
<glyph unicode="&#xf71a;" d="M-258 -454q0 20 7.5 38t20 32t30 22t36.5 8q21 0 39.5 -8t31.5 -22t21 -32t8 -38t-8 -37t-21 -30t-31.5 -20.5t-39.5 -7.5q-19 0 -36.5 7.5t-30 20.5t-20 30t-7.5 37z" />
<glyph unicode="&#xf71d;" horiz-adv-x="932" d="M51 884h154l57 -558l4 -80l14 82l99 405h141l94 -405l14 -90l11 88q9 75 15.5 128.5t11 91.5t7 61t4 37t1.5 21.5v12.5q0 20 -4 36t-14 28t-27.5 18t-44.5 6l-18 114q36 0 70 8.5t60 24t43 38.5t21 55h166q-4 -39 -18 -71.5t-33 -56.5t-43 -41t-50 -26q24 -20 35 -51.5 t11 -75.5q0 -4 -0.5 -9.5t-2 -17t-4.5 -31.5t-8 -53.5t-13 -82t-18.5 -117.5t-25 -161t-33.5 -212h-182l-99 444l-96 -444h-180z" />
<glyph unicode="&#xf881;" horiz-adv-x="1169" d="M37 682q27 54 64 94.5t82 67t98 39t110 12.5q33 0 65.5 -4.5t63 -14t57.5 -24t49 -33.5q39 38 90.5 57t107.5 19q48 0 95.5 -15t85 -44.5t61.5 -74.5t24 -103v-944h-152v919q0 32 -8 57.5t-23 42.5t-36 26t-47 9q-22 0 -42 -8t-36 -22.5t-27 -36t-15 -47.5v-940h-151v914 q0 32 -11.5 58t-32.5 44t-51 27t-67 9q-62 0 -108.5 -19t-69.5 -51q6 -10 11.5 -22t9 -26t6 -28t2.5 -28v-463h92v-129h-244v598q0 30 -12 52t-41 32z" />
<glyph unicode="&#xf882;" horiz-adv-x="1167" d="M16 0v129h82v469q0 30 -13 52t-42 32q27 54 63 94.5t81 67t97 39t109 12.5q33 0 65.5 -4.5t62.5 -13.5t56.5 -23t48.5 -33q39 38 90 56t105 18q48 0 96 -15t85.5 -44.5t61.5 -74.5t24 -103v-944h-152v919q0 32 -8 57.5t-23 42.5t-36.5 26t-47.5 9q-22 0 -42 -8 t-35.5 -22.5t-26.5 -36t-15 -47.5v-940h-151v914q0 66 -41 102t-117 36q-62 0 -106 -19t-66 -51q6 -10 11 -22t8.5 -26t5.5 -28t2 -28v-592h-232z" />
<glyph d="M-606 1024q0 35 9 71t29 66.5t50 52.5t74 31q7 32 26.5 57.5t51.5 44.5t76 29t98 12v-110q-72 0 -105 -24t-33 -78v-25h-28q-33 0 -55.5 -9.5t-35.5 -26.5t-18.5 -40t-5.5 -51h-133z" />
<glyph horiz-adv-x="626" d="M-590 1145q0 32 11.5 59t31.5 47.5t46.5 31.5t58.5 11t59 -11t47 -31.5t31.5 -48t11.5 -58.5t-11.5 -58t-31.5 -47t-48 -31q-26 -11 -58 -11q-31 0 -58 11t-47 31t-31.5 47t-11.5 58zM-496 1145q0 -11 4.5 -21t12 -17t17.5 -11t20 -4q12 0 22 4t17 11t11.5 17t4.5 21 q0 12 -4.5 21.5t-11.5 17.5t-17 12t-22 4q-10 0 -20 -4t-17.5 -12t-12 -17.5t-4.5 -21.5zM14 637q0 64 23 112.5t61 80.5t86 48.5t98 16.5q48 0 96 -15t86 -44.5t61.5 -74.5t23.5 -103v-658h-151v633q0 32 -8.5 57.5t-23.5 42.5t-36.5 26t-47.5 9q-24 0 -44.5 -9t-37 -26 t-26.5 -41t-12 -55h-148z" />
<glyph horiz-adv-x="626" d="M-590 1145q0 32 11.5 59t31.5 47.5t46.5 31.5t58.5 11t59 -11t47 -31.5t31.5 -48t11.5 -58.5t-11.5 -58t-31.5 -47t-48 -31q-26 -11 -58 -11q-31 0 -58 11t-47 31t-31.5 47t-11.5 58zM-496 1145q0 -11 4.5 -21t12 -17t17.5 -11t20 -4q12 0 22 4t17 11t11.5 17t4.5 21 q0 12 -4.5 21.5t-11.5 17.5t-17 12t-22 4q-10 0 -20 -4t-17.5 -12t-12 -17.5t-4.5 -21.5zM14 637q0 64 23 112.5t61 80.5t86 48.5t98 16.5q48 0 96 -15t86 -44.5t61.5 -74.5t23.5 -103v-658h-151v633q0 32 -8.5 57.5t-23.5 42.5t-36.5 26t-47.5 9q-24 0 -44.5 -9t-37 -26 t-26.5 -41t-12 -55h-148z" />
<glyph d="M-633 1002l63 126h490v-126h-553z" />
<glyph d="M-633 1002l63 126h357v134h133v-260h-553z" />
<glyph d="M-633 1002l63 126h250q-2 2 -2 4v4q0 28 11 53t29.5 43t43 29t52.5 11t52 -11t43 -29t29.5 -43t10.5 -53t-10.5 -52t-29.5 -42.5t-43 -29.5q-24 -10 -52 -10h-447zM-232 1134q0 -18 14 -31t32 -13t31 13t13 31t-13 32t-31 14t-32 -14t-14 -32z" />
<glyph d="M-633 1002l63 126h170v134h128v-134h65v134h127v-260h-553z" />
<glyph d="M-891 1002l63 126h558v-126h-621z" />
<glyph d="M-891 1002l63 126h424v134h134v-260h-621z" />
<glyph d="M-891 1002l63 126h322q-2 2 -2 4v4q0 28 11 53t29 43t43 29t53 11t52 -11t42.5 -29t29 -43t10.5 -53t-10.5 -52t-29 -42.5t-42.5 -29.5q-24 -10 -52 -10h-519zM-418 1134q0 -18 13 -31t33 -13q18 0 31 13t13 31t-13 32t-31 14q-19 0 -32.5 -14t-13.5 -32z" />
<glyph d="M-891 1002l63 126h238v134h127v-134h65v134h128v-260h-621z" />
<glyph d="M-400 1344v225h130v-225h-130z" />
<glyph d="M-614 1474v103h186v-127q72 2 107 36t35 91h126q0 -46 -19 -87.5t-55 -73.5t-88 -52q-52 -18 -118 -20h-100v130h-74z" />
<glyph d="M-649 1344q0 57 10 94.5t27.5 60.5t40.5 33t49 10q34 0 55 -16.5t33 -42.5q10 26 35.5 42.5t62.5 16.5q20 0 38 -5t33 -16t25 -29.5t12 -45.5q17 14 28.5 44t11.5 68h112q0 -36 -11 -71t-30 -64.5t-47 -51t-62 -27.5h-96q0 10 -1 26t-4 31t-9 26t-16 11t-17 -10 t-11.5 -24t-6.5 -30t-2 -30h-88q0 14 -1.5 30t-5.5 30t-11 24t-17 10t-16.5 -11t-9.5 -26t-3.5 -31t-0.5 -26h-107z" />
<glyph d="M-514 1446v102h125v109h115v-109h124v-102h-124v-115h-115v115h-125z" />
<glyph d="M-895 1002l63 126h752v-126h-815z" />
<glyph d="M-895 1002l63 126h619v134h133v-260h-815z" />
<glyph d="M-895 1002l63 126h506q-2 2 -2 4v4q0 28 11 53t29.5 43t43 29t52.5 11t52 -11t42.5 -29t29 -43t10.5 -53t-10.5 -52t-29 -42.5t-42.5 -29.5q-24 -10 -52 -10h-703zM-238 1134q0 -18 14 -31t32 -13t31 13t13 31t-13 32t-31 14t-32 -14t-14 -32z" />
<glyph d="M-895 1002l63 126h432v134h128v-134h65v134h127v-260h-815z" />
<glyph d="M-209 1239v225h129v-225h-129z" />
<glyph d="M-463 1372v102h187v-126q36 0 62.5 9.5t44 26t26 39.5t8.5 51h127q0 -46 -19 -87t-55 -73t-88.5 -52t-118.5 -21h-100v131h-74z" />
<glyph d="M-512 1241q0 57 10 95t27 61t40.5 33t49.5 10q34 0 54.5 -17t33.5 -43q11 26 36 43t63 17q20 0 38 -5t32.5 -16.5t24.5 -30t13 -44.5q17 14 28 44t11 68h113q0 -36 -11 -71t-30.5 -65t-47 -51t-61.5 -28h-96q0 10 -1 26t-4.5 31.5t-9.5 26.5t-16 11t-17 -10t-11.5 -24 t-6.5 -30.5t-2 -30.5h-88q0 14 -2 30.5t-6 30.5t-10.5 24t-16.5 10t-16.5 -11t-9.5 -26.5t-4 -31.5t-1 -26h-106z" />
<glyph d="M-320 1356v102h126v108h114v-108h125v-102h-125v-115h-114v115h-126z" />
<glyph d="M-440 1239v225h128v-225h-128z" />
<glyph d="M-626 1372v102h186v-126q36 0 62.5 9.5t44 26t26 39.5t8.5 51h127q0 -46 -19 -87t-55 -73t-88 -52t-118 -21h-101v131h-73z" />
<glyph d="M-717 1241q0 57 10 95t27.5 61t40.5 33t49 10q34 0 55 -17t33 -43q11 26 36.5 43t61.5 17q20 0 38.5 -5t33 -16.5t24.5 -30t13 -44.5q17 14 28 44t11 68h112q0 -36 -10.5 -71t-30 -65t-47.5 -51t-61 -28h-96q0 10 -1 26t-4.5 31.5t-9.5 26.5t-16 11t-17 -10t-11 -24 t-6 -30.5t-2 -30.5h-89q0 14 -1.5 30.5t-5.5 30.5t-11 24t-17 10q-11 0 -17 -11t-9 -26.5t-3.5 -31.5t-0.5 -26h-107z" />
<glyph d="M-565 1354v102h125v108h114v-108h126v-102h-126v-115h-114v115h-125z" />
<glyph d="M-410 -133h205v-336h-139v213h-66v123z" />
<glyph d="M-574 -133h206v-147q0 -36 15 -54t44 -18t44 18t15 54v147h140v-147q-1 -38 -11.5 -73t-34.5 -61t-61 -41.5t-92 -15.5q-54 0 -92 15.5t-61.5 41.5t-34.5 60q-11 36 -11 74v26h-66v121z" />
<glyph d="M-396 -219q0 20 8 38.5t21 32t30 21.5t36 8q20 0 38.5 -8t32.5 -21.5t22 -31.5t8 -39q0 -20 -8 -36.5t-22 -29.5t-32 -21t-39 -8q-20 0 -36.5 8t-29.5 21t-21 29.5t-8 36.5z" />
<glyph d="M-406 -133h206v-336h-140v213h-66v123z" />
<glyph d="M-668 -133h205v-147q0 -36 15 -54q14 -18 44 -18t45 18t15 54v147h139v-147q-1 -38 -11.5 -73t-34 -61t-61.5 -42q-38 -15 -92 -15t-91.5 15.5t-61 41.5t-34.5 60q-11 36 -11 74v26h-66v121z" />
<glyph d="M-383 -211q0 21 7.5 39t20.5 32t30 22t36 8q21 0 39 -8t32 -22t22 -32t8 -39q0 -19 -8 -36t-22 -30t-32 -20.5t-39 -7.5q-19 0 -36 7.5t-30 20.5t-20.5 30t-7.5 36z" />
<glyph d="M-565 1004v192h129v-68h536v-124h-665z" />
<glyph d="M-428 1344v225h129v-225h-129z" />
<glyph d="M-626 1444v102h186v-126q36 0 62.5 9t44 26t26 40t8.5 51h127q0 -45 -19 -86.5t-55 -73.5t-88 -52t-118 -21h-101v131h-73z" />
<glyph d="M-588 1344q0 57 10 94.5t27 60.5t40.5 33t49.5 10q34 0 55 -16q22 -17 34 -43q10 26 35 42.5t63 16.5q20 0 38 -5t33 -16t24.5 -29.5t12.5 -45.5q17 14 28 44t11 68h113q0 -36 -11 -71t-30.5 -64.5t-47 -51t-61.5 -27.5h-96q0 10 -1 26t-4 31t-9.5 26t-16.5 11t-17 -10 t-11.5 -24t-6.5 -30t-2 -30h-88q0 14 -1.5 30t-5.5 30t-10.5 24t-16.5 10t-17 -11t-10 -26t-4 -31t-1 -26h-106z" />
<glyph d="M-494 1426v102h126v108h114v-108h125v-102h-125v-116h-114v116h-126z" />
<glyph d="M-752 1002l64 126h608v-126h-672z" />
<glyph d="M-752 1002l64 126h475v134h133v-260h-672z" />
<glyph d="M-752 1002l64 126h362q-2 2 -2 4v4q0 28 11 53t29.5 43t43 29t52.5 11t52 -11t42.5 -29t29 -43t10.5 -53t-10.5 -52t-29 -42.5t-42.5 -29.5q-24 -10 -52 -10h-560zM-238 1134q0 -18 14 -31t32 -13t31 13t13 31t-13 32t-31 14t-32 -14t-14 -32z" />
<glyph d="M-752 1002l64 126h288v134h128v-134h65v134h127v-260h-672z" />
<glyph d="M-496 1344v225h130v-225h-130z" />
<glyph d="M-620 1446v102h124v109h116v-109h124v-102h-124v-115h-116v115h-124z" />
</font>
</defs>
</svg>
